<?xml version="1.0" encoding="utf-8"?>
<!-- Generator: Adobe Illustrator 23.0.5, SVG Export Plug-In . SVG Version: 6.00 Build 0)  -->
<svg version="1.1" id="Layer_1" xmlns="http://www.w3.org/2000/svg" xmlns:xlink="http://www.w3.org/1999/xlink" x="0px" y="0px"
	 viewBox="0 0 1920 1080" style="enable-background:new 0 0 1920 1080;" xml:space="preserve">
<style type="text/css">
	.st0{clip-path:url(#SVGID_2_);fill:#FFFFFF;}
	.st1{clip-path:url(#SVGID_2_);}
	.st2{fill:#F1F1F4;}
	.st3{fill:url(#SVGID_3_);}
	.st4{fill:url(#SVGID_4_);}
	.st5{fill:#E6E1F0;}
	.st6{fill:url(#SVGID_5_);}
	.st7{opacity:0.62;fill:url(#SVGID_6_);}
	.st8{opacity:0.62;fill:url(#SVGID_7_);}
	.st9{opacity:0.5;fill:url(#SVGID_8_);}
	.st10{fill:#FFFFFF;}
	.st11{fill:url(#SVGID_9_);}
	.st12{opacity:0.5;fill:url(#SVGID_10_);}
	.st13{opacity:0.5;fill:url(#SVGID_11_);}
	.st14{fill:url(#SVGID_12_);}
	.st15{fill:url(#SVGID_13_);}
	.st16{opacity:0.76;fill:url(#SVGID_14_);}
	.st17{opacity:0.76;fill:url(#SVGID_15_);}
	.st18{opacity:0.76;fill:url(#SVGID_16_);}
	.st19{fill:#F59084;}
	.st20{fill:url(#SVGID_17_);}
	.st21{opacity:0.5;fill:url(#SVGID_18_);}
	.st22{fill:url(#SVGID_19_);}
	.st23{opacity:0.5;fill:url(#SVGID_20_);}
	.st24{fill:url(#SVGID_21_);}
	.st25{fill:url(#SVGID_22_);}
	.st26{fill:#CB4F7B;}
	.st27{fill:#ED8183;}
	.st28{fill:url(#SVGID_23_);}
	.st29{opacity:0.6;fill:url(#SVGID_24_);}
	.st30{fill:url(#SVGID_25_);}
	.st31{fill:#E28183;}
	.st32{opacity:0.91;fill:url(#SVGID_26_);}
	.st33{fill:url(#SVGID_27_);}
	.st34{opacity:0.6;fill:url(#SVGID_28_);}
	.st35{fill:url(#SVGID_29_);}
	.st36{fill:url(#SVGID_30_);}
	.st37{opacity:0.91;fill:url(#SVGID_31_);}
	.st38{opacity:0.5;fill:url(#SVGID_32_);}
	.st39{opacity:0.5;fill:url(#SVGID_33_);}
	.st40{opacity:0.5;fill:url(#SVGID_34_);}
	.st41{opacity:0.5;fill:url(#SVGID_35_);}
	.st42{opacity:0.5;fill:url(#SVGID_36_);}
	.st43{opacity:0.5;fill:url(#SVGID_37_);}
	.st44{opacity:0.5;fill:url(#SVGID_38_);}
	.st45{opacity:0.5;fill:url(#SVGID_39_);}
	.st46{opacity:0.5;fill:url(#SVGID_40_);}
	.st47{opacity:0.76;fill:url(#SVGID_41_);}
	.st48{opacity:0.5;fill:url(#SVGID_42_);}
	.st49{opacity:0.3;fill:url(#SVGID_43_);}
	.st50{opacity:0.5;fill:url(#SVGID_44_);}
	.st51{opacity:0.5;fill:url(#SVGID_45_);}
	.st52{opacity:0.5;fill:url(#SVGID_46_);}
	.st53{opacity:0.5;fill:url(#SVGID_47_);}
	.st54{fill:url(#SVGID_48_);}
	.st55{fill:#ECEFF8;}
	.st56{opacity:0.5;fill:url(#SVGID_49_);}
	.st57{opacity:0.3;fill:url(#SVGID_50_);}
	.st58{opacity:0.5;fill:url(#SVGID_51_);}
	.st59{opacity:0.5;fill:url(#SVGID_52_);}
	.st60{opacity:0.5;fill:url(#SVGID_53_);}
	.st61{opacity:0.5;fill:#7554A3;}
	.st62{fill:url(#SVGID_54_);}
	.st63{fill:url(#SVGID_55_);}
	.st64{fill:url(#SVGID_56_);}
	.st65{opacity:0.6;fill:url(#SVGID_57_);}
	.st66{fill:#39378E;}
	.st67{fill:url(#SVGID_58_);}
	.st68{fill:url(#SVGID_59_);}
	.st69{fill:#FDEBED;}
	.st70{fill:#7F9EC9;}
	.st71{fill:#25225F;}
	.st72{fill:#C7669D;}
	.st73{fill:#CB5F7D;}
	.st74{fill:#A04B8C;}
	.st75{fill:#FABBB0;}
	.st76{opacity:0.6;fill:url(#SVGID_60_);}
	.st77{fill:url(#SVGID_61_);}
	.st78{fill:#D2726C;}
	.st79{opacity:0.6;fill:url(#SVGID_62_);}
	.st80{opacity:0.6;fill:url(#SVGID_63_);}
	.st81{opacity:0.5;fill:url(#SVGID_64_);}
	.st82{fill:url(#SVGID_65_);}
	.st83{fill:url(#SVGID_66_);}
	.st84{fill:url(#SVGID_67_);}
	.st85{opacity:0.8;fill:url(#SVGID_68_);}
	.st86{opacity:0.8;fill:url(#SVGID_69_);}
	.st87{fill:#4DC4F1;}
	.st88{fill:url(#SVGID_70_);}
	.st89{fill:url(#SVGID_71_);}
	.st90{fill:url(#SVGID_72_);}
	.st91{opacity:0.6;fill:#4BC8ED;}
	.st92{fill:#754E9F;}
	.st93{opacity:0.6;fill:url(#SVGID_73_);}
	.st94{opacity:0.3;fill:url(#SVGID_74_);}
	.st95{opacity:0.3;fill:url(#SVGID_75_);}
	.st96{opacity:0.3;fill:url(#SVGID_76_);}
	.st97{opacity:0.3;fill:url(#SVGID_77_);}
	.st98{fill:#D3D3EA;}
	.st99{fill:#E4F4F8;}
	.st100{fill:url(#SVGID_78_);}
	.st101{fill:url(#SVGID_79_);}
	.st102{opacity:0.81;fill:url(#SVGID_80_);}
	.st103{fill:#4A439B;}
	.st104{clip-path:url(#SVGID_2_);fill:url(#SVGID_81_);}
	.st105{clip-path:url(#SVGID_2_);fill:url(#SVGID_82_);}
	.st106{clip-path:url(#SVGID_2_);fill:url(#SVGID_83_);}
	.st107{clip-path:url(#SVGID_2_);fill:url(#SVGID_84_);}
	.st108{clip-path:url(#SVGID_2_);fill:url(#SVGID_85_);}
	.st109{clip-path:url(#SVGID_2_);fill:url(#SVGID_86_);}
	.st110{opacity:0.73;fill:url(#SVGID_87_);}
	.st111{fill:#934399;}
	.st112{opacity:0.73;fill:url(#SVGID_88_);}
	.st113{fill-rule:evenodd;clip-rule:evenodd;fill:url(#SVGID_89_);}
	.st114{fill-rule:evenodd;clip-rule:evenodd;fill:url(#SVGID_90_);}
	.st115{fill-rule:evenodd;clip-rule:evenodd;fill:url(#SVGID_91_);}
	.st116{opacity:0.5;fill-rule:evenodd;clip-rule:evenodd;fill:#611735;}
	.st117{fill-rule:evenodd;clip-rule:evenodd;fill:#B7D7F1;}
	.st118{clip-path:url(#SVGID_2_);fill:#ED3393;}
	.st119{clip-path:url(#SVGID_2_);fill:#6772B6;}
	.st120{clip-path:url(#SVGID_2_);fill:#5552A3;}
	.st121{fill-rule:evenodd;clip-rule:evenodd;fill:url(#SVGID_92_);}
	.st122{fill-rule:evenodd;clip-rule:evenodd;fill:url(#SVGID_93_);}
	.st123{fill-rule:evenodd;clip-rule:evenodd;fill:url(#SVGID_94_);}
	.st124{fill-rule:evenodd;clip-rule:evenodd;fill:url(#SVGID_95_);}
</style>
<g>
	<defs>
		<rect id="SVGID_1_" x="137.48" y="-1.36" width="1620.76" height="1080.51"/>
	</defs>
	<clipPath id="SVGID_2_">
		<use xlink:href="#SVGID_1_"  style="overflow:visible;"/>
	</clipPath>
	<rect x="137.48" y="-1.36" class="st0" width="1620.76" height="1080.51"/>
	<g class="st1">
		<path class="st2" d="M537.84,528.35c0.02-0.66,0.34-0.99,0.96-0.97l18.12,0.55c1.79,0.05,3.31,0.33,4.56,0.82
			c1.25,0.49,2.25,1.16,3,2.02c0.75,0.85,1.28,1.88,1.6,3.07c0.32,1.19,0.46,2.52,0.41,3.98l-0.15,4.98
			c-0.04,1.46-0.26,2.78-0.65,3.95c-0.39,1.17-0.98,2.17-1.78,2.97c-0.8,0.8-1.84,1.42-3.11,1.83c-1.27,0.41-2.81,0.59-4.6,0.54
			l-9.76-0.3l-2.02-5.71l-0.26-0.01l-0.17,5.64l-6.84-0.21L537.84,528.35z M544.16,545.44l11.58,0.35c1.31,0.04,2.25-0.22,2.81-0.78
			c0.57-0.56,0.88-1.57,0.92-3.03l0.12-4.05c0.05-1.5-0.2-2.54-0.73-3.09c-0.54-0.56-1.46-0.86-2.76-0.9l-11.08-0.34
			c-0.15,0-0.28,0.04-0.37,0.14c-0.09,0.1-0.14,0.21-0.14,0.34L544.16,545.44z"/>
		<path class="st2" d="M576.29,538.71l-0.23-0.01l-0.22,7.23c-0.01,0.31,0.14,0.47,0.45,0.48l20.38,0.62l-0.19,6.27l-26.71-0.81
			c-0.64-0.02-0.95-0.36-0.93-1.02l0.67-22.17c0.02-0.66,0.35-0.98,0.99-0.97l25.95,0.79c0.66,0.02,0.99,0.36,0.97,1.02l-0.19,6.27
			l-6.41,2.16l-0.27-0.01l0.1-3.22c0.01-0.24-0.1-0.37-0.32-0.38l-13.7-0.42c-0.18-0.01-0.29,0.04-0.35,0.14
			c-0.06,0.1-0.09,0.2-0.09,0.31l-0.09,3.02l11.28,0.34l-0.15,4.91l-9.46-0.29L576.29,538.71z"/>
		<path class="st2" d="M621.58,538.26l-0.27-0.01l0.08-2.66c0.01-0.27-0.12-0.4-0.39-0.41l-12.74-0.39
			c-0.46-0.01-0.79,0.08-0.97,0.27c-0.18,0.19-0.28,0.48-0.29,0.85l-0.02,0.6c-0.01,0.47,0.05,0.77,0.2,0.9
			c0.15,0.14,0.45,0.25,0.89,0.33l14.93,2.54c0.95,0.16,1.75,0.39,2.41,0.69c0.65,0.3,1.19,0.68,1.59,1.14
			c0.41,0.47,0.69,1.03,0.84,1.7c0.16,0.67,0.22,1.46,0.2,2.36l-0.06,1.92c-0.03,1-0.18,1.87-0.45,2.63
			c-0.27,0.76-0.69,1.38-1.25,1.89c-0.57,0.5-1.31,0.88-2.23,1.11c-0.92,0.24-2.04,0.34-3.36,0.3l-21.5-0.65l0.19-6.27l19.28,0.59
			c0.58,0.02,0.96-0.08,1.16-0.28c0.19-0.2,0.3-0.57,0.31-1.1l0.02-0.66c0.01-0.42-0.05-0.72-0.19-0.89
			c-0.14-0.17-0.42-0.28-0.84-0.34l-14.41-2.26c-0.97-0.16-1.8-0.39-2.49-0.67c-0.69-0.28-1.25-0.66-1.68-1.11
			c-0.43-0.46-0.73-1.01-0.91-1.66c-0.18-0.65-0.25-1.41-0.23-2.3l0.05-1.69c0.05-1.75,0.56-3.09,1.51-4.02
			c0.96-0.93,2.52-1.37,4.69-1.3l21.47,0.65c0.69,0.02,1.02,0.38,1,1.09l-0.15,4.98L621.58,538.26z"/>
		<path class="st2" d="M630.65,554.35l0.73-24.16l6.84,0.21l-0.73,24.16L630.65,554.35z"/>
		<path class="st2" d="M662.86,544.96c0.01-0.35,0.01-0.72-0.02-1.11c-0.02-0.39-0.05-0.73-0.08-1.02l0.01-0.3l6.77,0.21
			l-0.36,11.85c-0.02,0.62-0.31,0.92-0.86,0.9l-18.18-0.55c-1.79-0.06-3.31-0.33-4.56-0.82c-1.25-0.49-2.24-1.16-2.99-2.02
			c-0.75-0.85-1.28-1.88-1.6-3.07c-0.32-1.19-0.45-2.52-0.41-3.98l0.15-4.98c0.04-1.46,0.26-2.78,0.65-3.95
			c0.39-1.17,0.98-2.16,1.78-2.97c0.8-0.81,1.84-1.42,3.11-1.83c1.27-0.42,2.81-0.6,4.6-0.54l18.08,0.55
			c0.64,0.02,0.96,0.36,0.93,1.02l-0.16,5.21l-6.41,2.13l-0.27-0.01l0.07-2.32c0.01-0.22-0.09-0.34-0.29-0.34l-11.55-0.35
			c-0.66-0.02-1.22,0.03-1.68,0.13c-0.46,0.11-0.84,0.31-1.13,0.6c-0.3,0.29-0.52,0.68-0.66,1.18c-0.15,0.49-0.23,1.11-0.26,1.84
			l-0.13,4.25c-0.04,1.46,0.2,2.49,0.74,3.08c0.54,0.59,1.46,0.91,2.76,0.95l11.45,0.35c0.24,0.01,0.37-0.12,0.37-0.39
			L662.86,544.96z"/>
		<path class="st2" d="M683.98,531.79c0.51,0.02,0.87,0.1,1.07,0.27c0.2,0.16,0.39,0.41,0.56,0.75l8.63,17.64
			c0.15,0.27,0.35,0.41,0.62,0.42l0.36,0.01c0.35,0.01,0.54-0.16,0.55-0.52l0.55-18.18l6.2,0.19l-0.7,23.2
			c-0.02,0.64-0.34,0.95-0.96,0.93l-9.83-0.3c-0.46-0.01-0.81-0.09-1.03-0.23c-0.23-0.14-0.44-0.4-0.63-0.78l-8.96-17.61
			c-0.12-0.27-0.33-0.41-0.62-0.42l-0.33-0.01c-0.35-0.01-0.54,0.16-0.55,0.52l-0.55,18.15l-6.21-0.19l0.7-23.16
			c0.02-0.66,0.34-0.99,0.96-0.97L683.98,531.79z"/>
	</g>
	<g class="st1">
		
			<linearGradient id="SVGID_3_" gradientUnits="userSpaceOnUse" x1="554.4575" y1="581.7307" x2="554.4575" y2="389.4297" gradientTransform="matrix(0.906 -0.4233 0.4233 0.906 -156.9335 365.0801)">
			<stop  offset="0" style="stop-color:#D8CBE4"/>
			<stop  offset="1" style="stop-color:#CABADB"/>
		</linearGradient>
		<path class="st3" d="M556.44,500.02c-10.3-17.72-28.51-25.02-28.51-25.02l-6.35,2.97l14.3,25.94c-1.91,9.97-8.75,15.45-8.75,15.45
			l-0.02-0.04c0,0-8.59,1.73-17.46-3.2l-10.72-27.61l-6.35,2.97c0,0-6.09,18.65,0.9,37.92c0,0,2.71,6.25,3.18,6.8
			c2.52,2.94,9.08,6.33,21.76,5.54l43.77,83.5c-3.63,6.26-4.26,14.12-0.97,21.16c5.36,11.46,18.97,16.41,30.43,11.05
			c11.46-5.36,16.4-18.97,11.05-30.43c-3.29-7.04-9.72-11.61-16.85-12.83l-35.94-87.11c8.55-9.03,10.36-16.14,9.71-20.25
			C559.48,505.95,556.44,500.02,556.44,500.02z M592.44,644.02l-11.6,5.42l-10.49-7.33l1.11-12.75l11.6-5.42l10.49,7.33
			L592.44,644.02z"/>
		
			<linearGradient id="SVGID_4_" gradientUnits="userSpaceOnUse" x1="554.4462" y1="589.2328" x2="554.4462" y2="396.9318" gradientTransform="matrix(0.906 -0.4233 0.4233 0.906 -156.9335 365.0801)">
			<stop  offset="0" style="stop-color:#B6A7D1"/>
			<stop  offset="1" style="stop-color:#7662AB"/>
		</linearGradient>
		<path class="st4" d="M559.61,506.81c-10.3-17.72-28.51-25.02-28.51-25.02l-6.35,2.97l14.3,25.94c-1.91,9.97-8.75,15.45-8.75,15.45
			l-0.02-0.04c0,0-8.59,1.73-17.46-3.2l-10.72-27.61l-6.35,2.97c0,0-6.09,18.65,0.9,37.92c0,0,9.9,13.27,24.94,12.34l43.77,83.5
			c-3.63,6.26-4.26,14.12-0.97,21.16c5.36,11.46,18.97,16.4,30.43,11.05c11.46-5.36,16.4-18.97,11.05-30.43
			c-3.29-7.04-9.72-11.61-16.85-12.83l-35.94-87.11C563.44,522.92,559.61,506.81,559.61,506.81z M595.61,650.82l-11.59,5.42
			l-10.49-7.33l1.11-12.75l11.6-5.42l10.49,7.33L595.61,650.82z"/>
		
			<rect x="493.83" y="489.63" transform="matrix(0.906 -0.4233 0.4233 0.906 -162.0894 256.8981)" class="st5" width="7.01" height="7.5"/>
		
			<rect x="522.84" y="476.12" transform="matrix(0.906 -0.4233 0.4233 0.906 -153.6505 267.9172)" class="st5" width="7.01" height="7.5"/>
		
			<rect x="581.83" y="646.38" transform="matrix(0.906 -0.4233 0.4233 0.906 -219.8965 310.1073)" class="st5" width="12.8" height="7.5"/>
		<g>
			
				<linearGradient id="SVGID_5_" gradientUnits="userSpaceOnUse" x1="554.4459" y1="541.4243" x2="554.4459" y2="460.3662" gradientTransform="matrix(0.906 -0.4233 0.4233 0.906 -156.9335 365.0801)">
				<stop  offset="0" style="stop-color:#B6A7D1"/>
				<stop  offset="1" style="stop-color:#7662AB"/>
			</linearGradient>
			<path class="st6" d="M530.96,554.72l35.35,67.94c9.29,0.43,14.27-6.67,14.27-6.67l-28.78-71.01
				C538.88,544.5,530.96,554.72,530.96,554.72z M577.85,616.55c-1.03,0.89-2.6,2.07-4.58,2.99c-1.57,0.73-3.2,1.22-4.88,1.46
				l-35.4-66.54c1.73-1.53,4.7-3.81,8.51-5.59c2.86-1.34,5.78-2.19,8.75-2.58L577.85,616.55z"/>
			<path class="st5" d="M577.85,616.55l2.73-0.55c0,0-4.05,7.2-14.27,6.67l2.09-1.66C568.39,621,573.43,620.41,577.85,616.55z"/>
			
				<linearGradient id="SVGID_6_" gradientUnits="userSpaceOnUse" x1="542.9429" y1="461.9885" x2="565.949" y2="461.9885" gradientTransform="matrix(0.906 -0.4233 0.4233 0.906 -156.9335 365.0801)">
				<stop  offset="0" style="stop-color:#8D8BC3"/>
				<stop  offset="1" style="stop-color:#A178B5"/>
			</linearGradient>
			<path class="st7" d="M530.96,554.72l2.03-0.26c0,0,6.04-6.27,17.26-8.17l1.55-1.31c0,0-4.51-0.79-11.53,2.49
				C533.24,550.76,530.96,554.72,530.96,554.72z"/>
		</g>
		
			<linearGradient id="SVGID_7_" gradientUnits="userSpaceOnUse" x1="554.446" y1="467.3292" x2="554.446" y2="453.4026" gradientTransform="matrix(0.906 -0.4233 0.4233 0.906 -156.9335 365.0801)">
			<stop  offset="0" style="stop-color:#FFFFFF"/>
			<stop  offset="1" style="stop-color:#A178B5"/>
		</linearGradient>
		<path class="st8" d="M521.58,548.52c0,0,17-3.02,31.49-14.66l4.6,11.14c0,0-5.21-5.16-16.65-0.5
			c-13.38,5.45-12.65,16.22-12.65,16.22L521.58,548.52z"/>
		
			<linearGradient id="SVGID_8_" gradientUnits="userSpaceOnUse" x1="566.6134" y1="549.6987" x2="566.6134" y2="460.3395" gradientTransform="matrix(0.906 -0.4233 0.4233 0.906 -156.9335 365.0801)">
			<stop  offset="0" style="stop-color:#010101"/>
			<stop  offset="1" style="stop-color:#FFFFFF"/>
		</linearGradient>
		<path class="st9" d="M557.67,545c-3.26-2.34-6.99-2.42-6.99-2.42l34.21,82.65l4.12-4.26L557.67,545z"/>
		<path class="st10" d="M557.67,545c0,0-3.59,11.04,6.72,16.28L557.67,545z"/>
	</g>
	<g class="st1">
		<g>
			<linearGradient id="SVGID_9_" gradientUnits="userSpaceOnUse" x1="894.6437" y1="1079.1462" x2="894.6437" y2="838.1655">
				<stop  offset="0" style="stop-color:#645BA7"/>
				<stop  offset="1" style="stop-color:#603192"/>
			</linearGradient>
			<path class="st11" d="M1072.74,1079.15H945.78c-13.29-73.8-44.19-169.83-44.19-169.83c-7.51-4.46-22.18,1.03-22.18,1.03
				L833,1079.15H717.01c-6.16-104.16,50.84-222.4,50.84-222.4l-0.03-0.03c-0.19-0.41-2-4.02-1.51-6.46
				c0.19-1.05,2.13-3.05,4.32-5.02c3.13-2.86,6.86-5.73,6.86-5.73l216.4-1.35c0,0,2.19,1.11,4.97,2.78h0.03
				c4.73,2.86,11.13,7.29,11.13,10.53c0,4.46-1.76,7.35-2.19,8l-0.11,0.14C1054.12,947.18,1072.74,1079.15,1072.74,1079.15z"/>
			
				<radialGradient id="SVGID_10_" cx="813.2938" cy="886.1613" r="73.0093" gradientTransform="matrix(0.6462 0.1491 -0.3852 1.6696 593.0988 -608.3175)" gradientUnits="userSpaceOnUse">
				<stop  offset="0" style="stop-color:#4C484B"/>
				<stop  offset="1" style="stop-color:#010101"/>
			</radialGradient>
			<path class="st12" d="M824.48,1003.36c-15.53,67.32-49.25,117.02-75.3,111.01c-26.06-6.01-34.59-65.46-19.06-132.78
				c15.53-67.32,49.25-117.02,75.3-111.01C831.48,876.6,840.01,936.04,824.48,1003.36z"/>
			
				<radialGradient id="SVGID_11_" cx="927.798" cy="855.7565" r="73.0078" gradientTransform="matrix(0.6386 -0.179 0.4623 1.6499 13.9393 -254.5714)" gradientUnits="userSpaceOnUse">
				<stop  offset="0" style="stop-color:#4C484B"/>
				<stop  offset="1" style="stop-color:#010101"/>
			</radialGradient>
			<path class="st13" d="M1048.67,978.2c18.64,66.53,12.88,126.31-12.87,133.52c-25.75,7.22-61.74-40.87-80.38-107.39
				c-18.64-66.53-12.88-126.31,12.87-133.52C994.04,863.59,1030.03,911.67,1048.67,978.2z"/>
			<g>
				<linearGradient id="SVGID_12_" gradientUnits="userSpaceOnUse" x1="816.6513" y1="994.5468" x2="879.8544" y2="994.5468">
					<stop  offset="0" style="stop-color:#968AC2"/>
					<stop  offset="1" style="stop-color:#C6AFD5"/>
				</linearGradient>
				<path class="st14" d="M817.98,1079.26l-1.33-0.23c14.76-86.98,52.24-159.93,52.61-160.65l0.16-0.2l9.55-8.35l0.89,1.02
					l-9.45,8.26C868.72,922.4,832.44,994.09,817.98,1079.26z"/>
			</g>
			<g>
				
					<linearGradient id="SVGID_13_" gradientUnits="userSpaceOnUse" x1="1003.2843" y1="994.5493" x2="1066.4926" y2="994.5493" gradientTransform="matrix(-1 0 0 1 1967.6285 0)">
					<stop  offset="0" style="stop-color:#968AC2"/>
					<stop  offset="1" style="stop-color:#C6AFD5"/>
				</linearGradient>
				<path class="st15" d="M963.02,1079.26c-14.47-85.23-51.75-157.61-53.43-160.83l-8.45-7.58l0.9-1.01l8.69,7.86
					c0.39,0.73,38.86,74.36,53.62,161.34L963.02,1079.26z"/>
			</g>
			<linearGradient id="SVGID_14_" gradientUnits="userSpaceOnUse" x1="886.1627" y1="1079.1462" x2="886.1627" y2="838.1655">
				<stop  offset="0" style="stop-color:#CECBE6"/>
				<stop  offset="1" style="stop-color:#745FA9"/>
			</linearGradient>
			<path class="st16" d="M1010.02,851.48c0,4.46-1.76,7.35-2.19,8l-0.11,0.14c-45.06,10.18-79.34,52.24-79.34,52.24
				c24.55,47.11,65.51,167.29,65.51,167.29h-48.11c-13.29-73.8-44.19-169.83-44.19-169.83c-7.51-4.46-22.18,1.03-22.18,1.03
				L833,1079.15h-30.04c10.75-70.72,42.49-157.05,42.49-157.05c-31.2-36.33-77.61-65.34-77.61-65.34l-0.03-0.03l-5.51-3.46l4-3
				c20.07,19.26,84.79,44.41,86.79,45.19l-82.47-50.22c3.13-2.86,6.86-5.73,6.86-5.73l216.4-1.35c0,0,2.19,1.11,4.97,2.78
				l-59.1,32.52L1010.02,851.48z"/>
			<linearGradient id="SVGID_15_" gradientUnits="userSpaceOnUse" x1="914.2169" y1="958.6558" x2="914.2169" y2="892.929">
				<stop  offset="0" style="stop-color:#CECBE6"/>
				<stop  offset="1" style="stop-color:#745FA9"/>
			</linearGradient>
			<polygon class="st17" points="901.59,909.32 926.85,892.93 920.85,909.32 916.45,958.66 			"/>
			<linearGradient id="SVGID_16_" gradientUnits="userSpaceOnUse" x1="838.0886" y1="934.4865" x2="838.0886" y2="870.0921">
				<stop  offset="0" style="stop-color:#CECBE6"/>
				<stop  offset="1" style="stop-color:#745FA9"/>
			</linearGradient>
			<polygon class="st18" points="879.41,910.34 853.1,895.46 796.77,870.09 868.5,917.5 872.77,934.49 			"/>
		</g>
		<path class="st19" d="M951.8,402.88c0.16,1.16,0.3,1.78,0.3,1.78c-1.32,5.51-2.84,10.62-4.48,15.29
			c-5.29,15.21-11.89,26.01-16.83,32.74c-4.29,5.81-7.35,8.59-7.35,8.59c-39.41-12.37-58.83-50.92-66.29-70.1
			c-0.05-0.08-0.08-0.19-0.11-0.3c-1.43-3.62-2.38-6.54-2.97-8.43c0,0,0,0,0-0.03c-0.46-1.51-0.68-2.35-0.68-2.35
			c0.16-0.32,0.32-0.68,0.49-1l0.08-0.14c0.65-1.35,1.3-2.73,1.89-4.05c5.16-11.29,8.59-21.85,10.81-30.17
			c1.92-7.08,2.94-12.53,3.43-15.42c0.24-1.49,0.35-2.3,0.35-2.3l18.37,9.7l63.29,33.5c-0.95,5.81-1.32,11.26-1.35,16.05
			c-0.05,3.38,0.05,6.4,0.24,8.97c0.19,3.13,0.51,5.62,0.76,7.24v0.03C951.75,402.64,951.78,402.75,951.8,402.88z"/>
		<linearGradient id="SVGID_17_" gradientUnits="userSpaceOnUse" x1="903.4025" y1="475.2763" x2="903.4025" y2="379.0839">
			<stop  offset="0" style="stop-color:#D6CCE5"/>
			<stop  offset="1" style="stop-color:#F3EDF6"/>
		</linearGradient>
		<path class="st20" d="M934.25,465.52c-3.65,3.62-7.94,6.86-13.07,9.56c-0.11,0.08-0.22,0.14-0.32,0.19c0,0-0.14-0.08-0.38-0.22
			l-0.03-0.03c-1.38-0.84-6.08-3.73-12.4-8.48c-16.53-12.45-44.14-37.63-52.03-71.56c-0.03-0.05-0.03-0.08-0.05-0.14
			c-0.92-4.02-1.57-8.13-1.89-12.4c0,0,0,0,0-0.03c-0.08-1.11-0.16-2.22-0.19-3.35c0,0,5.48,12.89,14.99,26.8
			c11.18,16.37,27.96,34.23,48,34.33c17.34,0.11,26.23-11.75,30.74-22.69c1.92-4.65,3.05-9.1,3.65-12.43
			c0.03-0.03,0.03-0.05,0.03-0.05c0.19-0.97,0.32-1.84,0.46-2.57v-0.03c0.05-0.38,0.11-0.7,0.14-1c0.16-1.22,0.22-1.92,0.22-1.92
			S958.75,441.02,934.25,465.52z"/>
		<linearGradient id="SVGID_18_" gradientUnits="userSpaceOnUse" x1="853.8824" y1="427.0855" x2="952.9227" y2="427.0855">
			<stop  offset="0" style="stop-color:#CECBE6"/>
			<stop  offset="1" style="stop-color:#745FA9"/>
		</linearGradient>
		<path class="st21" d="M934.25,465.52c-3.65,3.62-7.94,6.86-13.07,9.56h-0.32l-0.38-0.03l-0.03-0.03
			c-1.38-0.84-6.08-3.73-12.4-8.48c-16.53-12.45-44.14-37.63-52.03-71.56c-0.03-0.05-0.03-0.08-0.05-0.14
			c-0.92-4.02-1.57-8.13-1.89-12.4c0,0,0,0,0-0.03c-0.08-1.11-0.16-2.22-0.19-3.35c0,0,5.48,12.89,14.99,26.8
			c0,0,10.91,29.98,34.52,44.84c11.83,7.43,20.8,6.35,27.39,1.97c6.59-4.35,10.86-11.94,13.37-17.67
			c2.51-5.75,3.32-11.13,3.46-15.07c0.03-0.89,0.03-1.7,0-2.43c1.92-4.65,3.05-9.1,3.65-12.43c0.03-0.03,0.03-0.05,0.03-0.05
			c0.19-0.97,0.32-1.84,0.46-2.57v-0.03c0.05-0.38,0.11-0.7,0.14-1c0.16-1.22,0.22-1.92,0.22-1.92S958.75,441.02,934.25,465.52z"/>
		<linearGradient id="SVGID_19_" gradientUnits="userSpaceOnUse" x1="875.0826" y1="859.6116" x2="875.0826" y2="374.8969">
			<stop  offset="0" style="stop-color:#968AC2"/>
			<stop  offset="1" style="stop-color:#C6AFD5"/>
		</linearGradient>
		<path class="st22" d="M1085.95,710.5c-0.3,0.14-0.43,0.22-0.43,0.22c-2.22,0.27-9.1-1.24-18.13-9.05l-0.03-0.03
			c0-0.03-0.03-0.05-0.08-0.08c-0.03-0.03-0.05-0.08-0.11-0.11c-7.56-6.62-16.64-17.67-25.69-35.76
			c-18.1-36.17-23.28-60.32-24.12-64.53l-0.11-0.65l-10.56,16.75c-7.16,21.53-20.72,110.62-20.48,114.45s12.02,22.53,11.78,24.82
			c0,0,0,0.03-0.03,0.05c-0.32,2.32-5.62,7.43-7.13,12.99c-1.03,3.7,6.16,15.37,11.21,24.1v0.03c2.62,4.54,4.65,8.27,4.65,9.67
			c0,4.08-12.8,24.04-12.8,24.04v10.75l-0.19,0.19l-0.59,0.54l-0.49,0.41c-4.86,3.84-25.47,16.4-89.87,19.85
			c-76.31,4.08-127.15-20.48-127.15-20.48l3.84-10.51c0,0-3.57-3.05-3.84-4.59c-0.24-1.54,2.81-5.13,2.81-5.13s-7.67-4.08-7.67-9.21
			c0-5.11,15.37-20.96,14.86-34.55c-0.51-13.56-12.29-25.58-13.83-33.25c-1.54-7.67,19.96-26.61,19.96-26.61
			c-18.42-58.35-22.02-136.66-22.02-136.66l-3.57-4.11c0,0-22.02,50.16-41.98,74.72c-2.38,2.92-4.89,5.81-7.48,8.59
			c-5.56,6.02-11.48,11.67-17.18,16.61c-13.83,12.05-26.39,19.96-29.58,19.34c-5.13-1.03-25.61-41.46-24.66-82.93
			c0.43-19.72,12.32-41.79,24.66-59.48c1.32-1.89,2.65-3.75,4-5.56c8.75-11.91,17.15-21.26,21.18-25.53
			c1.57-1.67,2.46-2.57,2.46-2.57s-2.81-9.05-4.73-16.91c-0.03-0.19-0.08-0.38-0.14-0.57c0-0.08-0.03-0.19-0.05-0.27
			c-0.03-0.14-0.05-0.19-0.05-0.19c-1.13-4.84-1.84-9.02-1.19-10.05c1.7-2.73,11.62-5.81,13.32-7.83
			c1.7-2.05,8.86-36.52,14.32-40.28c5.24-3.59,14.45-6.21,45.17-18.29c1.51-0.59,3.05-1.19,4.67-1.84
			c34.44-13.64,68.23-30.2,68.23-30.2l12.97-15.94h5.78l-1.89,4.05l-0.08,0.14c0.92,4.11,1.97,8.05,3.16,11.8
			c0.03,0.11,0.05,0.22,0.11,0.3c17.83,56.24,63.7,74.37,63.7,74.37c31.88-23.53,31.25-60.89,31.25-60.89v-5.13l5.97,1.78l4.08,9.72
			c0,0,6.92,10.75,34.31,22.8c4.73,2.08,9.81,4.7,15.05,7.7c25.07,14.24,52.94,36.25,55.08,40.92c0.22,0.49,0.46,1.24,0.73,2.32
			v0.03c2.94,11.56,9,54.86,14.61,70.31c3.51,9.64,9.05,14.97,13.13,17.72c0.03,0.03,0.03,0.03,0.05,0.03
			c3.03,2.08,5.24,2.73,5.24,2.73c0.43,2.38,0.84,4.73,1.22,7.05C1113.31,656.72,1090.97,706.99,1085.95,710.5z"/>
		<linearGradient id="SVGID_20_" gradientUnits="userSpaceOnUse" x1="673.9235" y1="557.5706" x2="791.9692" y2="557.5706">
			<stop  offset="0" style="stop-color:#CECBE6"/>
			<stop  offset="1" style="stop-color:#745FA9"/>
		</linearGradient>
		<path class="st23" d="M791.97,570.69l-22.26,7.48l-3.57-4.11c0,0-22.02,50.16-41.98,74.72c-2.38,2.92-4.89,5.81-7.48,8.59
			c-5.56,6.02-11.48,11.67-17.18,16.61l-16.96-73.12l-8.62-55.51c8.75-11.91,17.15-21.26,21.18-25.53c1.57-1.67,2.46-2.57,2.46-2.57
			s-2.81-9.05-4.73-16.91c-0.03-0.19-0.08-0.38-0.14-0.57c0-0.08-0.03-0.19-0.05-0.27c-0.03-0.14-0.05-0.19-0.05-0.19
			c-1.13-4.84-1.84-9.02-1.19-10.05c1.7-2.73,11.62-5.81,13.32-7.83c1.7-2.05,8.86-36.52,14.32-40.28c0,0-3.57,33.09,15.37,75.07
			l9.21,12.97l26.96,21.66C770.58,550.86,780.81,564.45,791.97,570.69z"/>
		<linearGradient id="SVGID_21_" gradientUnits="userSpaceOnUse" x1="670.2724" y1="693.3232" x2="670.2724" y2="466.6592">
			<stop  offset="0" style="stop-color:#968AC2"/>
			<stop  offset="1" style="stop-color:#D9C7E2"/>
		</linearGradient>
		<path class="st24" d="M727.57,630.55c-4.78,35.47-57.65,62.78-57.65,62.78c-11.78,0-24.93-20.48-36.87-45.73
			s-12.67-97.81-13.29-102.3c-0.65-4.48-7.29-13.45-7.7-17.29c-0.38-3.84,10.75-11.78,10.75-11.78l-0.08-0.19l-0.08-0.19
			c-1.16-2.49-7.7-16.5-7.24-19.07c0.51-2.81,13.02-8.94,13.02-8.94l0.78,13.8c0,0,29.12-5.51,38.98-28.07l1.73-6.92l4.86,3.24
			v29.69c0,0,1,4.62,2.54,4.62s12.89-5.67,15.26-4.89c2.4,0.78,4.75,16.67,7.94,18.69c3.16,2.05,11.62,7.94,12.89,10.75
			c0.57,1.27,0.62,5.83,0.68,11.21c0.08,6.59,0.14,14.37,1.11,18.75C717.01,566.63,732.35,595.05,727.57,630.55z"/>
		<linearGradient id="SVGID_22_" gradientUnits="userSpaceOnUse" x1="1060.0442" y1="627.9957" x2="1212.1405" y2="627.9957">
			<stop  offset="0" style="stop-color:#A698C9"/>
			<stop  offset="1" style="stop-color:#D9C7E2"/>
		</linearGradient>
		<path class="st25" d="M1211.07,600.16c-2.38,3.75-14.32,11.62-17.4,14.69c-3.08,3.05,0,13.16,0,13.16
			c-50.16,53.24-102.46,79.9-107.73,82.5c-0.3,0.14-0.43,0.22-0.43,0.22c-31.5-21.18-28.8-56.05-18.34-85.44
			c9.99-28.2,27.12-51.35,27.88-52.35l0.03-0.03c0,0,0,0,0.03-0.03c0.57-0.22,9.56-3.94,15.99-4.43c2.13-0.16,4.08,0.68,5.92,1.84
			c3.84,2.38,7.08,6.13,10.21,4.57c4.62-2.32,14.94-26.72,21.93-27.39c4.89-0.46,11.67,4.51,16.18,7.35
			c1.97,1.24,3.51,2.08,4.27,1.86c2.57-0.68,11.26-11.1,11.97-11.37c0.68-0.3,4.65,2.62,4.65,2.62l-2.78,3.46
			c4.27,24.58,18.26,41.11,18.26,41.11l9.37-13.72C1211.07,578.76,1213.48,596.4,1211.07,600.16z"/>
		<path class="st26" d="M951.94,401.83c-0.05,0.35-0.11,0.7-0.14,1.05c-0.14,0.73-0.3,1.43-0.51,2.16c0,0,0,0.03-0.03,0.05
			c-3.21,11.91-16.21,24.1-32.6,18.23c-17.91-6.4-52-78.61-52-78.61l3.43-15.42l80.9,65.91l0.89,6.24L951.94,401.83z"/>
		<g>
			<path class="st27" d="M682.54,388.62c0,0-4.95-27.3-2.73-47.43c2.22-20.13-0.57-42.99-0.57-42.99s-4.89-2.05-8.47,0
				c-3.58,2.05-11.94,22.86-8.19,39.58c3.75,16.72,0.85,56.81,0.85,56.81h-5.63l-12.28-16.89l-5.97-1.71
				c0,0-34.38,32.42-33.87,51.69l4.49,17.15l42.34-1.45l27.64-31.56L682.54,388.62z"/>
			<linearGradient id="SVGID_23_" gradientUnits="userSpaceOnUse" x1="620.7979" y1="435.7526" x2="620.7979" y2="375.9881">
				<stop  offset="0.016" style="stop-color:#FBC2AA"/>
				<stop  offset="1" style="stop-color:#F59496"/>
			</linearGradient>
			<path class="st28" d="M639.54,375.99c0,0,0.89,21.5,5.71,39.92c0,0-0.81,7.55-9.64,8.06l-2.18-2.43c0,0-1.54,8.57-9.34,9.21
				l-7.42-7.42l1.92,6.14c0,0-2.69,6.53-9.72,6.27c0,0-11.77-9.21-12.54-21.24l11.64-9.85v-7.55l13.83-9.72l0.26-5.5
				C622.06,381.88,630.16,375.86,639.54,375.99z"/>
			<linearGradient id="SVGID_24_" gradientUnits="userSpaceOnUse" x1="658.4318" y1="434.3376" x2="658.4318" y2="335.4083">
				<stop  offset="0" style="stop-color:#FEEADB"/>
				<stop  offset="0.9944" style="stop-color:#C27DB5"/>
			</linearGradient>
			<path class="st29" d="M680.3,335.41c0,0-2.07,5.27-5.02,7.31c-2.94,2.05-11.47,3.61-11.47,3.61l-0.39,48.25h-5.63l-12.28-16.89
				c0,0,6.23,9.64,6.61,16.89l-4.86,2.39l-4.22-14.46l-2,10.41l1.99,12.95c0,0,7.28-6.27,20.46-6.52l1.98,3.6
				c0,0-23.84,19.75-29.34,31.39c0,0,11.77-14.97,38.64-31.48l2.56-7.93l3.4-18.94C680.73,375.99,677.51,348.7,680.3,335.41z"/>
			<linearGradient id="SVGID_25_" gradientUnits="userSpaceOnUse" x1="655.2221" y1="501.6407" x2="655.2221" y2="349.1268">
				<stop  offset="0.016" style="stop-color:#FBC2AA"/>
				<stop  offset="1" style="stop-color:#F59496"/>
			</linearGradient>
			<path class="st30" d="M700.29,419.49c-2.22,6.65-25.42,34.28-27.99,40.28c-2.57,5.97-4.11,13.8-4.11,13.8
				c-11.4,24.66-38.98,28.07-38.98,28.07l-1.27-22.26c0,0-14.83-8.54-17.34-13.21l-0.03-0.08l-0.3-0.78
				c-0.76-4.35-0.11-20.48-0.11-20.48l25.96-10.51c11.26-14.59,38.66-31.47,38.66-31.47l1.27-7.64
				c-19.67-9.67-16.37-38.93-13.05-42.52c3.32-3.57,9.45-3.57,9.45-3.57s7.19,23.53,11.78,34.55
				C688.86,394.67,702.5,412.85,700.29,419.49z"/>
			<path class="st31" d="M622.06,381.88c0,0,2.9,26.87,11.39,39.67c0,0-10.79-13.39-11.64-34.16L622.06,381.88z"/>
			<path class="st31" d="M607.98,397.1c0,0,2.82,21.62,16.13,33.65c0,0-11.78-5.89-16.13-26.1V397.1z"/>
			<linearGradient id="SVGID_26_" gradientUnits="userSpaceOnUse" x1="627.9479" y1="477.8406" x2="675.9009" y2="477.8406">
				<stop  offset="0.016" style="stop-color:#CFA2CB"/>
				<stop  offset="0.9944" style="stop-color:#BD89BD"/>
			</linearGradient>
			<path class="st32" d="M675.9,454.04c0,0-29.27,28.42-47.95,25.34l1.27,22.26c0,0,30.71-2.68,40.7-34.99
				C669.91,466.65,673.51,457.36,675.9,454.04z"/>
		</g>
		<g>
			<linearGradient id="SVGID_27_" gradientUnits="userSpaceOnUse" x1="1215.2755" y1="594.5375" x2="1215.2755" y2="390.5879">
				<stop  offset="0.016" style="stop-color:#FBC2AA"/>
				<stop  offset="1" style="stop-color:#F59496"/>
			</linearGradient>
			<path class="st33" d="M1294.6,492.67c0,0-26.88,49.14-58.35,64.24h-10.75l-24.82,37.63c0,0-16.05-10.08-17.23-43.17
				c0,0,5.62-5.86,7-12.48c0,0-8.86-6.97-11.26-12.07c-2.38-5.13-3.24-20.48-4.94-26.8s-16.21-19.45-19.45-21.15
				c-3.24-1.7-17.91-2.57-17.91-2.57s-2.05-5.29,0-7.83c2.05-2.57,24.91-11.45,37.36-2.92c0,0,0.86,6.48,2.22,9.91
				c1.38,3.4,12.29,15.51,13.99,15.51s9.05-6.13,12.29-10.91c3.11-4.59,19.61-40.17,23.61-52.19c0.03-0.14,0.05-0.24,0.11-0.35
				c0.05-0.19,0.14-0.38,0.16-0.54c0.05-0.14,0.08-0.24,0.11-0.35c0.03-0.05,0.05-0.08,0.05-0.14c3.08-10.4,20.99-30.36,30.55-35.82
				c0,0,4.08-1.03,6.29,4.08c0,0-7.67,21.85-15.69,34.82c-1.35,2.19-2.81,4.75-4.32,7.51c0,0,0,0-0.03,0
				c-6.83,12.56-14.53,29.01-15.64,31.42l-0.14,0.3l4.27,2.19l11.53-10.94l11.83-11.21l27.15,28.66l-2.67,3.4l-8.48,10.89l4.3,0.78
				l9.99-11.05L1294.6,492.67z"/>
			<linearGradient id="SVGID_28_" gradientUnits="userSpaceOnUse" x1="1239.3701" y1="529.1937" x2="1239.3701" y2="427.8689">
				<stop  offset="0" style="stop-color:#FEEADB"/>
				<stop  offset="0.9944" style="stop-color:#C27DB5"/>
			</linearGradient>
			<path class="st34" d="M1288.31,503.12l-8.59,12.62c0,0-47.14-36.36-57.38-39.44s-13.99-1.03-13.99-1.03l-10.56,13.48
				c0,0,19.45,17.23,21.15,40.44c0,0-6.48-29.34-28.5-38.22c1.7,0,9.05-6.13,12.29-10.91c3.11-4.59,19.61-40.17,23.61-52.19
				c-0.54,2.05-1.24,6.05,0.43,9.21c2.32,4.3,15.99,0.24,16.8,0c0.03,0,0.03,0,0.03,0l-15.67,31.42l-0.14,0.3l4.27,2.19l11.53-10.94
				l-5.78,13.43l42.09,7.43l-8.48,10.89l4.3,0.78L1288.31,503.12z"/>
			<linearGradient id="SVGID_29_" gradientUnits="userSpaceOnUse" x1="1259.3594" y1="494.2209" x2="1259.3594" y2="448.7989">
				<stop  offset="0" style="stop-color:#F8AFB0"/>
				<stop  offset="0.984" style="stop-color:#FBC2AA"/>
			</linearGradient>
			<path class="st35" d="M1255.44,448.84c0,0,8.19-1.19,13.48,9.38l-1.19,3.41c0,0,7.98,1.56,15.7,14.5c0,0-6.82,12.45-23.71,18.08
				c0,0-7.85-2.22-9.21-8.87l1.54-4.27l-6.14,4.61c0,0-7.34,2.22-10.58-8.7L1255.44,448.84z"/>
			<linearGradient id="SVGID_30_" gradientUnits="userSpaceOnUse" x1="1285.7045" y1="501.2155" x2="1285.7045" y2="476.3071">
				<stop  offset="0" style="stop-color:#F8AFB0"/>
				<stop  offset="0.984" style="stop-color:#FBC2AA"/>
			</linearGradient>
			<path class="st36" d="M1297.06,489.27c0,0,1.71-7.85-6.65-12.97l-16.21,17.91c0,0,0.49,5.74,7.51,6.99
				C1281.71,501.22,1292.8,497.46,1297.06,489.27z"/>
			<linearGradient id="SVGID_31_" gradientUnits="userSpaceOnUse" x1="1179.1699" y1="550.8612" x2="1225.4968" y2="550.8612">
				<stop  offset="0.016" style="stop-color:#CFA2CB"/>
				<stop  offset="0.9944" style="stop-color:#BD89BD"/>
			</linearGradient>
			<path class="st37" d="M1179.17,526.82c0,0,18.78,20.95,46.33,30.09l-11.87,18l-24.78-31.46l1.59-4.55
				C1190.43,538.89,1180.53,531.44,1179.17,526.82z"/>
			<path class="st31" d="M1267.72,461.63c0,0-7.85,12.97-15.7,19.45l-1.54,4.27c0,0,15.23-10.28,20.84-22.16
				C1271.33,463.19,1269.51,461.89,1267.72,461.63z"/>
		</g>
		<linearGradient id="SVGID_32_" gradientUnits="userSpaceOnUse" x1="1114.698" y1="710.7498" x2="1114.698" y2="482.4617">
			<stop  offset="0" style="stop-color:#CECBE6"/>
			<stop  offset="1" style="stop-color:#745FA9"/>
		</linearGradient>
		<path class="st38" d="M1211.07,600.16c-2.38,3.75-14.32,11.62-17.4,14.69c-3.08,3.05,0,13.16,0,13.16
			c-50.16,53.24-102.46,79.9-107.73,82.5c-0.3,0.14-0.43,0.22-0.43,0.22c-4.11,0.51-24.07-5.11-44.03-45.03
			c-18.1-36.17-23.28-60.32-24.12-64.53l-0.11-0.65l4.4-5.97l6.54-73.69l4.59,14.83c17.4-20.99,33.79-53.22,33.79-53.22l0.73,2.32
			v0.03c2.94,11.56,9,54.86,14.61,70.31c3.51,9.64,9.05,14.97,13.13,17.72l0.03,0.05l-0.03,0.03
			c-16.02,14.61-23.96,35.63-27.88,52.35c-3.59,15.34-3.84,27.09-3.84,27.09s4.43-20.8,18.42-45.81c5.08-9.1,12.48-17.23,19.8-23.91
			c5.51-5.02,10.99-9.24,15.45-12.37c3.84,2.38,7.08,6.13,10.21,4.57c-21.07,31.63-20.56,94.25-0.76,82.31
			c19.77-11.94,24.3-37.28,24.3-37.28c-4.67-30.88-3.28-65.7,0.48-72.32c4.56,0.15,17.61,9.33,18.36,9.11
			c-1.19,36.33,15.88,60.59,15.88,60.59l11.26-17.42c-16.4-27.63-15.18-54.54-15.18-54.54c0.68-0.3,4.65,2.62,4.65,2.62l-2.78,3.46
			c4.27,24.58,18.26,41.11,18.26,41.11l9.37-13.72C1211.07,578.76,1213.48,596.4,1211.07,600.16z"/>
		<linearGradient id="SVGID_33_" gradientUnits="userSpaceOnUse" x1="612.0643" y1="664.7562" x2="993.8895" y2="664.7562">
			<stop  offset="0" style="stop-color:#CECBE6"/>
			<stop  offset="1" style="stop-color:#745FA9"/>
		</linearGradient>
		<path class="st39" d="M993.89,827.41v10.75l-0.19,0.19l-0.59,0.54l-0.49,0.41c-4.86,3.84-25.47,16.4-89.87,19.85
			c-76.31,4.08-127.15-20.48-127.15-20.48l3.84-10.51c0,0-3.57-3.05-3.84-4.59c-0.24-1.54,2.81-5.13,2.81-5.13s-7.67-4.08-7.67-9.21
			c0-4.62,12.53-17.99,14.56-30.55c0.24-1.35,0.35-2.67,0.3-4c-0.51-13.51-12.18-25.47-13.8-33.14c-0.03-0.08-0.03-0.11-0.03-0.11
			c-1.54-7.67,19.96-26.61,19.96-26.61c-18.42-58.35-22.02-136.66-22.02-136.66l-3.57-4.11c0,0-22.02,50.16-41.98,74.72
			c-19.96,24.58-49.14,45.57-54.24,44.54c-11.78,0-24.93-20.48-36.87-45.73s-12.67-97.81-13.29-102.3
			c-0.65-4.48-7.29-13.45-7.7-17.29c12.8,22.02,33.2,15.53,33.2,15.53c-14.78,0.32-22.45-27.31-22.45-27.31l-0.08-0.19l-0.08-0.19
			l-7.21-19.04c0.81,0.92,17.69,19.8,34.01,8.16c16.72-11.94,25.34-35.06,25.34-35.06v29.69c0,0,1,4.62,2.54,4.62
			c-1,13.67-3.89,30.31-7.4,46.71c-7.59,35.47-17.99,69.72-17.99,69.72s28.2-15.34,38.11-54.24c4.73-18.61,5.51-34.79,5.05-46.57
			c-0.41-10.08-1.73-16.96-2.27-19.48c-0.03-0.19-0.08-0.38-0.14-0.57c0-0.08-0.03-0.19-0.05-0.27c0-0.05-0.03-0.11-0.03-0.14
			l2.73,5.78l5.19,12.86c6.02,49.92-6.4,125.15-6.4,125.15c18.1-22.53,21.85-72.34,21.07-84.44c-0.35-5.78-0.81-12.91-1.11-18.75
			c-0.41-6.38-0.68-11.21-0.68-11.21l37.03,22.1l-6.83-21.66l26.96,21.66c0,0,24.23,29.17,49.14,32.58
			c24.91,3.43,116.34,1.38,116.34,1.38s-79.5,5.11-102.7,11.94c-23.2,6.83-27.63,14.67-27.63,14.67
			c16.77,85.33,109.62,114.1,112.51,114.97c-84.23-12.64-123.42-84.25-123.42-84.25s-1.38,40.28,5.11,55.62
			c6.48,15.34,44.71,52.89,93.84,60.72c4.13,0.65,8.21,1.05,12.24,1.24c41.44,1.94,75.74-19.23,79.26-21.5
			c0.19-0.14,0.3-0.19,0.3-0.19s-0.03,0.05-0.08,0.14c-1.32,2.03-18.31,25.91-86.93,28.53c-4.16,0.16-8.21,0.14-12.16-0.03
			c-0.03,0-0.05,0-0.05,0c-63.59-2.67-95.98-45.03-95.98-45.03s-23.53,12.64-8.51,31.39c0.16,0.19,0.32,0.41,0.49,0.59
			c4.43,5.11,14.18,11.35,25.72,17.77c0.32,0.19,0.65,0.38,0.95,0.54c13.94,7.7,30.28,15.64,42.92,22.2
			c0.08,0.03,0.14,0.05,0.19,0.08c7.73,4.02,14.07,7.48,17.61,10.08c0.03,0,0.03,0.03,0.03,0.03c3.57,2.59,4.29,4.27,0.81,4.67
			c-17.75,2.05-84.96-12.61-87.68-8.54c-2.73,4.11,3.32,14.67,3.32,14.67c61.7,30.58,193.71,15.51,197.87,15.05
			c-110.48,28.28-200.87-7.54-200.87-7.54l3,10.59c0,0,49.22,17.05,107.21,18.42c58.02,1.35,94.19-13.48,94.19-13.48L993.89,827.41z
			"/>
		<linearGradient id="SVGID_34_" gradientUnits="userSpaceOnUse" x1="948.6844" y1="600.8627" x2="1021.6675" y2="600.8627">
			<stop  offset="0" style="stop-color:#CDECFC"/>
			<stop  offset="1" style="stop-color:#745FA9"/>
		</linearGradient>
		<path class="st40" d="M948.68,584.47c0,0,43.94,2.39,72.98,10.07l-14.98,22.72C1006.69,617.25,984.17,597.44,948.68,584.47z"/>
		<linearGradient id="SVGID_35_" gradientUnits="userSpaceOnUse" x1="882.489" y1="728.9477" x2="989.746" y2="728.9477">
			<stop  offset="0" style="stop-color:#CDECFC"/>
			<stop  offset="1" style="stop-color:#745FA9"/>
		</linearGradient>
		<path class="st41" d="M989.75,705.59c0,0-27.41,22.87-54.37,33.45c-26.96,10.58-52.89,11.6-52.89,11.6s15.5,4.61,53.63-1.54
			c38.13-6.14,51.18-26.79,51.18-26.79L989.75,705.59z"/>
		<linearGradient id="SVGID_36_" gradientUnits="userSpaceOnUse" x1="887.4559" y1="777.4457" x2="1002.0474" y2="777.4457">
			<stop  offset="0" style="stop-color:#CDECFC"/>
			<stop  offset="1" style="stop-color:#745FA9"/>
		</linearGradient>
		<path class="st42" d="M1002.05,793.68v0.03c-50.73,13.1-115.13-5.7-114.59-8c0.54-2.3,17.64,1.03,57.29-6.92
			c38.44-7.7,52.38-21.37,53.22-22.2c-0.32,2.32-5.62,7.43-7.13,12.99C989.81,773.28,997,784.95,1002.05,793.68z"/>
		<linearGradient id="SVGID_37_" gradientUnits="userSpaceOnUse" x1="788.8358" y1="657.3692" x2="788.8358" y2="528.7615">
			<stop  offset="0" style="stop-color:#CDECFC"/>
			<stop  offset="1" style="stop-color:#745FA9"/>
		</linearGradient>
		<path class="st43" d="M864.26,591.35c-43.33,4.4-55,16.48-55,16.48c-12.18,1.54-39.55-29.66-39.55-29.66l-3.57-4.11
			c0,0-22.02,50.16-41.98,74.72c-2.38,2.92-4.89,5.81-7.48,8.59l2.84-6.38c0,0,4.65-2.22,6-26.61
			c1.38-24.37-10.24-60.72-10.32-65.67c-0.08-4.94-1.78-29.96-1.78-29.96l37.03,22.1l-6.83-21.66l26.96,21.66
			c0,0,10.56,15.88,37.22,29.12C832.95,592.48,861.15,591.49,864.26,591.35z"/>
		<linearGradient id="SVGID_38_" gradientUnits="userSpaceOnUse" x1="799.1895" y1="668.1802" x2="799.1895" y2="570.6912">
			<stop  offset="0" style="stop-color:#CDECFC"/>
			<stop  offset="1" style="stop-color:#745FA9"/>
		</linearGradient>
		<path class="st44" d="M766.15,574.06l25.81-3.37c0,0,10.32,6.84,31.03,15.27l-17.27,25.46c0,0,6.85,36.3,26.52,56.76
			c0,0-52.19-28.99-59.53-53.36L766.15,574.06z"/>
		<linearGradient id="SVGID_39_" gradientUnits="userSpaceOnUse" x1="645.1144" y1="543.5573" x2="645.1144" y2="469.9008">
			<stop  offset="0" style="stop-color:#CDECFC"/>
			<stop  offset="1" style="stop-color:#745FA9"/>
		</linearGradient>
		<path class="st45" d="M615.44,496.81l7.37,19.42c0,0,7.52,26.21,22.45,27.31c14.93,1.1,29.52-43.95,29.52-43.95V469.9
			c0,0-15.88,34.04-33.03,37.88C624.62,511.62,615.44,496.81,615.44,496.81z"/>
		<linearGradient id="SVGID_40_" gradientUnits="userSpaceOnUse" x1="704.7181" y1="478.6941" x2="734.4021" y2="478.6941">
			<stop  offset="0" style="stop-color:#CDECFC"/>
			<stop  offset="1" style="stop-color:#745FA9"/>
		</linearGradient>
		<path class="st46" d="M704.72,481.44c0,0,13.31,26.6,29.68,34.79c0,0-19.47-47.26-15.37-75.07
			C719.03,441.16,711.88,445.62,704.72,481.44z"/>
		<linearGradient id="SVGID_41_" gradientUnits="userSpaceOnUse" x1="1027.405" y1="657.3692" x2="1027.405" y2="520.8468">
			<stop  offset="0" style="stop-color:#CECBE6"/>
			<stop  offset="1" style="stop-color:#745FA9"/>
		</linearGradient>
		<path class="st47" d="M1028.2,520.85l4.59,14.83l4.66,121.69c0,0-11.8-23.15-20.08-56.21l4.3-6.62
			C1021.67,594.54,1028.89,548.67,1028.2,520.85z"/>
		<linearGradient id="SVGID_42_" gradientUnits="userSpaceOnUse" x1="1180.8932" y1="628.0063" x2="1180.8932" y2="556.6657">
			<stop  offset="0" style="stop-color:#CECBE6"/>
			<stop  offset="1" style="stop-color:#745FA9"/>
		</linearGradient>
		<path class="st48" d="M1169.61,556.67c0,0-2.6,59.78,22.81,64.95l1.26,6.39C1193.68,628.01,1160.81,626.79,1169.61,556.67z"/>
		<linearGradient id="SVGID_43_" gradientUnits="userSpaceOnUse" x1="1099.9843" y1="624.8188" x2="1099.9843" y2="570.2801">
			<stop  offset="0" style="stop-color:#CECBE6"/>
			<stop  offset="1" style="stop-color:#745FA9"/>
		</linearGradient>
		<path class="st49" d="M1127.22,574.85c0,0-0.97,2.14-10.21-4.57c0,0-31.96,22.63-44.27,54.54c0,0,19.7-29.31,30.18-32.48
			c10.48-3.17,13.01,8.53,13.01,8.53S1120.08,584.38,1127.22,574.85z"/>
		<linearGradient id="SVGID_44_" gradientUnits="userSpaceOnUse" x1="629.6965" y1="548.259" x2="629.6965" y2="528.0052">
			<stop  offset="0" style="stop-color:#CDECFC"/>
			<stop  offset="1" style="stop-color:#745FA9"/>
		</linearGradient>
		<path class="st50" d="M612.06,528.01c0,0,12.3,22.66,35.33,15.55c0,0-13.8,9.3-27.63,1.74
			C619.76,545.29,611.18,530.56,612.06,528.01z"/>
		<linearGradient id="SVGID_45_" gradientUnits="userSpaceOnUse" x1="683.7999" y1="610.0075" x2="683.7999" y2="499.3176">
			<stop  offset="0" style="stop-color:#CECBE6"/>
			<stop  offset="1" style="stop-color:#745FA9"/>
		</linearGradient>
		<path class="st51" d="M692.59,499.32c0,0,16.91,63.21-27.2,110.69c0,0,28.65-14.7,35.14-48.74
			C707.02,527.23,692.59,499.32,692.59,499.32z"/>
		<linearGradient id="SVGID_46_" gradientUnits="userSpaceOnUse" x1="968.5771" y1="532.0955" x2="968.5771" y2="448.7989">
			<stop  offset="0" style="stop-color:#CDECFC"/>
			<stop  offset="1" style="stop-color:#745FA9"/>
		</linearGradient>
		<path class="st52" d="M995.51,448.8c0,0-1.9,28.53-15.58,49c-13.67,20.47-40.8,34.29-40.8,34.29s34.04-12.54,49.65-30.2
			C1004.39,484.24,995.51,448.8,995.51,448.8z"/>
		<linearGradient id="SVGID_47_" gradientUnits="userSpaceOnUse" x1="859.4515" y1="520.8354" x2="859.4515" y2="405.8703">
			<stop  offset="0" style="stop-color:#CDECFC"/>
			<stop  offset="1" style="stop-color:#745FA9"/>
		</linearGradient>
		<path class="st53" d="M821.41,405.87c0,0,0,23.86,7.68,48.17c7.68,24.31,74.32,66.79,74.32,66.79s-68.69-28.53-81.99-54.19
			C808.1,440.99,821.41,405.87,821.41,405.87z"/>
		<linearGradient id="SVGID_48_" gradientUnits="userSpaceOnUse" x1="820.6324" y1="541.8625" x2="1012.6512" y2="541.8625">
			<stop  offset="0" style="stop-color:#85459A"/>
			<stop  offset="1" style="stop-color:#645BA7"/>
		</linearGradient>
		<path class="st54" d="M820.63,519.48v38.86c0,0,89.44-0.72,189.73,5.92l2.29-34.97C1012.65,529.29,925.46,518.95,820.63,519.48z"
			/>
		<g>
			<path class="st55" d="M837.22,528.35c0.02-0.66,0.34-0.99,0.96-0.97l18.12,0.55c1.79,0.05,3.31,0.33,4.56,0.82
				c1.25,0.49,2.25,1.16,3,2.02s1.28,1.88,1.6,3.07c0.32,1.19,0.46,2.52,0.41,3.98l-0.15,4.98c-0.04,1.46-0.26,2.78-0.65,3.95
				c-0.39,1.17-0.98,2.17-1.78,2.97c-0.8,0.8-1.84,1.42-3.11,1.83c-1.27,0.41-2.81,0.59-4.6,0.54l-9.76-0.3l-2.02-5.71l-0.26-0.01
				l-0.17,5.64l-6.84-0.21L837.22,528.35z M843.54,545.44l11.58,0.35c1.31,0.04,2.25-0.22,2.81-0.78c0.57-0.56,0.88-1.57,0.92-3.03
				l0.12-4.05c0.05-1.5-0.2-2.54-0.73-3.09c-0.54-0.56-1.46-0.86-2.76-0.9l-11.08-0.34c-0.15,0-0.28,0.04-0.37,0.14
				c-0.09,0.1-0.14,0.21-0.14,0.34L843.54,545.44z"/>
			<path class="st55" d="M875.67,538.71l-0.23-0.01l-0.22,7.23c-0.01,0.31,0.14,0.47,0.45,0.48l20.38,0.62l-0.19,6.27l-26.71-0.81
				c-0.64-0.02-0.95-0.36-0.93-1.02l0.67-22.17c0.02-0.66,0.35-0.98,0.99-0.97l25.95,0.79c0.66,0.02,0.99,0.36,0.97,1.02l-0.19,6.27
				l-6.41,2.16l-0.27-0.01l0.1-3.22c0.01-0.24-0.1-0.37-0.32-0.38l-13.7-0.42c-0.18-0.01-0.29,0.04-0.35,0.14
				c-0.06,0.1-0.09,0.2-0.09,0.31l-0.09,3.02l11.28,0.34l-0.15,4.91l-9.46-0.29L875.67,538.71z"/>
			<path class="st55" d="M920.96,538.26l-0.27-0.01l0.08-2.66c0.01-0.27-0.12-0.4-0.39-0.41l-12.74-0.39
				c-0.46-0.01-0.79,0.08-0.97,0.27c-0.18,0.19-0.28,0.48-0.29,0.85l-0.02,0.6c-0.01,0.47,0.05,0.77,0.2,0.9
				c0.15,0.14,0.45,0.25,0.89,0.33l14.93,2.54c0.95,0.16,1.75,0.39,2.41,0.69c0.65,0.3,1.19,0.68,1.59,1.14
				c0.41,0.47,0.69,1.03,0.84,1.7c0.16,0.67,0.22,1.46,0.2,2.36l-0.06,1.92c-0.03,1-0.18,1.87-0.45,2.63
				c-0.27,0.76-0.69,1.38-1.25,1.89c-0.57,0.5-1.31,0.88-2.23,1.11c-0.92,0.24-2.04,0.34-3.36,0.3l-21.5-0.65l0.19-6.27l19.28,0.59
				c0.58,0.02,0.96-0.08,1.16-0.28c0.19-0.2,0.3-0.57,0.31-1.1l0.02-0.66c0.01-0.42-0.05-0.72-0.19-0.89
				c-0.14-0.17-0.42-0.28-0.84-0.34l-14.41-2.26c-0.97-0.16-1.8-0.39-2.49-0.67c-0.69-0.28-1.25-0.66-1.68-1.11
				c-0.43-0.46-0.73-1.01-0.91-1.66c-0.18-0.65-0.25-1.41-0.23-2.3l0.05-1.69c0.05-1.75,0.56-3.09,1.51-4.02
				c0.96-0.93,2.52-1.37,4.69-1.3l21.47,0.65c0.69,0.02,1.02,0.38,1,1.09l-0.15,4.98L920.96,538.26z"/>
			<path class="st55" d="M930.03,554.35l0.73-24.16l6.84,0.21l-0.73,24.16L930.03,554.35z"/>
			<path class="st55" d="M962.24,544.96c0.01-0.35,0.01-0.72-0.02-1.11c-0.02-0.39-0.05-0.73-0.08-1.02l0.01-0.3l6.77,0.21
				l-0.36,11.85c-0.02,0.62-0.31,0.92-0.86,0.9l-18.18-0.55c-1.79-0.06-3.31-0.33-4.56-0.82c-1.25-0.49-2.24-1.16-2.99-2.02
				c-0.75-0.85-1.28-1.88-1.6-3.07c-0.32-1.19-0.45-2.52-0.41-3.98l0.15-4.98c0.04-1.46,0.26-2.78,0.65-3.95
				c0.39-1.17,0.98-2.16,1.78-2.97c0.8-0.81,1.84-1.42,3.11-1.83c1.27-0.42,2.81-0.6,4.6-0.54l18.08,0.55
				c0.64,0.02,0.96,0.36,0.93,1.02l-0.16,5.21l-6.41,2.13l-0.27-0.01l0.07-2.32c0.01-0.22-0.09-0.34-0.29-0.34l-11.55-0.35
				c-0.66-0.02-1.22,0.03-1.68,0.13c-0.46,0.11-0.84,0.31-1.13,0.6c-0.3,0.29-0.52,0.68-0.66,1.18c-0.15,0.49-0.23,1.11-0.26,1.84
				l-0.13,4.25c-0.04,1.46,0.2,2.49,0.74,3.08c0.54,0.59,1.46,0.91,2.76,0.95l11.45,0.35c0.24,0.01,0.37-0.12,0.37-0.39
				L962.24,544.96z"/>
			<path class="st55" d="M983.36,531.79c0.51,0.02,0.87,0.1,1.07,0.27c0.2,0.16,0.39,0.41,0.56,0.75l8.63,17.64
				c0.15,0.27,0.35,0.41,0.62,0.42l0.36,0.01c0.35,0.01,0.54-0.16,0.55-0.52l0.55-18.18l6.2,0.19l-0.7,23.2
				c-0.02,0.64-0.34,0.95-0.96,0.93l-9.83-0.3c-0.46-0.01-0.81-0.09-1.03-0.23c-0.23-0.14-0.44-0.4-0.63-0.78l-8.96-17.61
				c-0.12-0.27-0.33-0.41-0.62-0.42l-0.33-0.01c-0.35-0.01-0.54,0.16-0.55,0.52l-0.55,18.15l-6.21-0.19l0.7-23.16
				c0.02-0.66,0.34-0.99,0.96-0.97L983.36,531.79z"/>
		</g>
		<linearGradient id="SVGID_49_" gradientUnits="userSpaceOnUse" x1="837.1886" y1="431.0564" x2="962.1495" y2="431.0564">
			<stop  offset="0" style="stop-color:#CECBE6"/>
			<stop  offset="1" style="stop-color:#745FA9"/>
		</linearGradient>
		<path class="st56" d="M962.15,411.04c-2.11,25.12-9.75,42.63-17.91,54.43c-11.24,16.21-23.39,21.75-23.39,21.75
			c-12.16-5.29-22.69-11.89-31.77-19.15c-38.52-30.79-50.95-73.47-51.89-76.99c16.26,39.28,40.14,63.07,58.24,76.47
			c14.59,10.83,25.42,14.91,25.42,14.91V469.9c-2.89-1.08-5.7-2.32-8.37-3.67c-31.88-16.07-48.62-49.57-56.46-71.23
			c-0.03-0.05-0.03-0.08-0.05-0.14c-4.24-11.72-5.89-19.96-5.89-19.96h5.78l-1.89,4.05l-0.08,0.14c0.92,4.11,1.97,8.05,3.16,11.8
			c0.03,0.11,0.05,0.22,0.11,0.3c17.83,56.24,63.7,74.37,63.7,74.37c31.88-23.53,31.25-60.89,31.25-60.89v-5.13l5.97,1.78
			L962.15,411.04z"/>
		<linearGradient id="SVGID_50_" gradientUnits="userSpaceOnUse" x1="1158.4277" y1="619.8726" x2="1158.4277" y2="547.5554">
			<stop  offset="0" style="stop-color:#CECBE6"/>
			<stop  offset="1" style="stop-color:#745FA9"/>
		</linearGradient>
		<path class="st57" d="M1151.24,547.56c0,0-8.67,28.3-0.48,72.32c0,0,4.09-55.79,7.17-60.65c3.07-4.86,11.67-2.56,11.67-2.56
			S1156.07,549.2,1151.24,547.56z"/>
		<linearGradient id="SVGID_51_" gradientUnits="userSpaceOnUse" x1="1056.2079" y1="701.454" x2="1056.2079" y2="482.4617">
			<stop  offset="0" style="stop-color:#CECBE6"/>
			<stop  offset="1" style="stop-color:#745FA9"/>
		</linearGradient>
		<path class="st58" d="M1067.18,701.45c-7.56-6.62-16.64-17.67-25.69-35.76c-18.1-36.17-23.28-60.32-24.12-64.53l4.3-6.62
			l5.75-55.65l5.38-3.21c0,0,19.21-21.2,33.79-53.22c0.22,0.49,0.46,1.24,0.73,2.32v0.03c2.94,11.56,9,54.86,14.61,70.31
			c3.51,9.64,9.05,14.97,13.13,17.72c0,0-33.25,49.33-34.87,84.52C1058.75,689.41,1065.88,699.83,1067.18,701.45z"/>
		<linearGradient id="SVGID_52_" gradientUnits="userSpaceOnUse" x1="820.7648" y1="804.3185" x2="820.7648" y2="741.5409">
			<stop  offset="0" style="stop-color:#CECBE6"/>
			<stop  offset="1" style="stop-color:#745FA9"/>
		</linearGradient>
		<path class="st59" d="M869.74,804.32c0,0-59.94-9.83-84.41-25.61c0,0-0.03,0-0.03-0.03c0.24-1.35,0.35-2.67,0.3-4
			c-0.51-13.51-12.18-25.47-13.8-33.14c0.27,0.73,2.03,4.78,10.53,12.07c5.38,4.62,13.51,10.56,25.72,17.77
			c0.32,0.19,0.65,0.38,0.95,0.54c17.29,10.21,32.17,17.13,42.92,22.2c0.08,0.03,0.14,0.05,0.19,0.08
			c9.67,4.54,15.94,7.54,17.61,10.08C869.74,804.29,869.74,804.32,869.74,804.32z"/>
		<linearGradient id="SVGID_53_" gradientUnits="userSpaceOnUse" x1="942.7139" y1="787.0738" x2="942.7139" y2="756.587">
			<stop  offset="0" style="stop-color:#CECBE6"/>
			<stop  offset="1" style="stop-color:#745FA9"/>
		</linearGradient>
		<path class="st60" d="M997.97,756.59c-0.32,2.32-5.62,7.43-7.13,12.99c0,0-21.99,23.28-103.38,16.13
			c0.54-2.3,17.64,1.03,57.29-6.92C983.19,771.09,997.13,757.42,997.97,756.59z"/>
		<path class="st61" d="M1011.5,441.54l-52.03,16.86l-15.24,7.08l-0.08,0.03l-9.91,0.03l-13.4,0.03l-8.37,0.68l-4.43,0.32l-12.61,1
			l-6.35,0.51l-62.4-22.58l-11.16-4.02l-51.32-18.58c1.51-0.59,3.05-1.19,4.67-1.84c34.44-13.64,68.23-30.2,68.23-30.2l12.97-15.94
			h5.78c5.16-11.29,8.59-21.85,10.81-30.17l3.43-15.42c0.24-1.49,0.35-2.3,0.35-2.3l18.37,9.7l61.94,49.54
			c-0.05,3.38,0.05,6.4,0.24,8.97l0.89,6.24c0.16-1.22,0.22-1.92,0.22-1.92l5.97,1.78l4.08,9.72c0,0,6.92,10.75,34.31,22.8
			C1001.18,435.92,1006.26,438.54,1011.5,441.54z"/>
		<g>
			<linearGradient id="SVGID_54_" gradientUnits="userSpaceOnUse" x1="941.3699" y1="395.2156" x2="941.3699" y2="186.6584">
				<stop  offset="0.016" style="stop-color:#FBC2AA"/>
				<stop  offset="1" style="stop-color:#F59496"/>
			</linearGradient>
			<path class="st62" d="M971.87,394.08c0,0-24.26,5.46-51.03-7.51c-26.77-12.97-49.27-51.19-50.65-60.72
				c-1.35-9.56,10.24-34.47,10.24-53.92c0-19.45-9.54-52.89,6.48-70.99c16.05-18.07,89.74-20.8,113.64,2.4c0,0,7.4,18.58,7.4,29.09
				c0,2.54-0.46,6.27-1.13,10.56c-0.22,1.59-0.51,3.3-0.78,5.05c-2.13,12.72-5.08,28.26-3.7,35.06c0.49,2.38,1.24,4.57,2.13,6.65
				v0.03c2.94,6.81,7.32,12.24,8.1,18.13C1013.61,315.6,1003.29,370.2,971.87,394.08z"/>
			<linearGradient id="SVGID_55_" gradientUnits="userSpaceOnUse" x1="863.622" y1="311.0582" x2="863.622" y2="249.5705">
				<stop  offset="0.016" style="stop-color:#FBC2AA"/>
				<stop  offset="1" style="stop-color:#F59496"/>
			</linearGradient>
			<path class="st63" d="M880.24,266.43c0,0-6.62-16.61-23.26-16.86c0,0-9.72,3.84-11.26,11.26c0,0,3.58,26.87,7.68,39.41
				s19.11,10.73,19.11,10.73S885.58,290.97,880.24,266.43z"/>
			<linearGradient id="SVGID_56_" gradientUnits="userSpaceOnUse" x1="970.3577" y1="334.3109" x2="972.9358" y2="320.8876">
				<stop  offset="0" style="stop-color:#E2626B"/>
				<stop  offset="1" style="stop-color:#F48885"/>
			</linearGradient>
			<path class="st64" d="M944.17,321.15c0,0,5.54-0.43,7.93,1.36c2.39,1.79,11.09,10.24,22.09,12.54c11,2.3,18.39-7.07,20.73-7.55
				c2.34-0.48,4.92,2.84,4.92,2.84s-1.01-3.83-6.74-5.57c0,0-2.32,8.83-18.27,5.81c-15.95-3.02-22.73-10.11-22.73-10.11l-0.81-1.45
				C951.29,319.01,946.79,319.94,944.17,321.15z"/>
			<linearGradient id="SVGID_57_" gradientUnits="userSpaceOnUse" x1="947.0859" y1="324.0403" x2="947.0859" y2="189.6875">
				<stop  offset="0" style="stop-color:#FEEADB"/>
				<stop  offset="0.9944" style="stop-color:#C27DB5"/>
			</linearGradient>
			<path class="st65" d="M920.63,238.51l0.22-1.71c0,0,15.91-27.92,47.39-28.69c31.48-0.77,38.59,18.96,38.59,18.96l5.83-8.85
				l-13.28-27l-92.48-1.54l-22.52,18.17l-2.85,44.48l10.01,58.72l24.36,12.98l6.88-6.1c-2.54-19.66-17.16-37.63-17.16-37.63
				l10.66-7.4c0,0,27.38,13.25,43.21,9.29c0,0,11.9-34.73,11.22-60.47C970.69,221.73,930.13,227.74,920.63,238.51z"/>
			<path class="st66" d="M919.22,240.57c0,0,1.53-10.06,18.51-14.08c18.91-4.48,34.27-8.27,34.27-8.27s-3.35,11.03-9.65,15.16
				c0,0-20.01-0.73-30.13,1.58C922.1,237.26,919.22,240.57,919.22,240.57z"/>
			<path class="st66" d="M1006.82,227.07c0,0-9.6,7.4-16.13,25.06c0,0,6.27-8.19,12.03-8.06c3.95,0.09,3.31,3.99,3.31,3.99
				S1009.96,237.5,1006.82,227.07z"/>
			<linearGradient id="SVGID_58_" gradientUnits="userSpaceOnUse" x1="940.538" y1="269.0197" x2="940.538" y2="242.4051">
				<stop  offset="0" style="stop-color:#D06075"/>
				<stop  offset="1" style="stop-color:#F37271"/>
			</linearGradient>
			<path class="st67" d="M925.57,269.02c0,0,1.02-21.24,21.75-26.61c0,0,7.42,9.6,8.19,20.47
				C955.51,262.88,944.5,260.83,925.57,269.02z"/>
			<linearGradient id="SVGID_59_" gradientUnits="userSpaceOnUse" x1="993.6237" y1="277.4649" x2="993.6237" y2="254.305">
				<stop  offset="0" style="stop-color:#D06075"/>
				<stop  offset="1" style="stop-color:#F48080"/>
			</linearGradient>
			<path class="st68" d="M984.94,277.46c0,0,1.68-16.91,11.39-23.16c0,0,6.62,4.96,5.93,19.11
				C1002.26,273.42,996.45,271.32,984.94,277.46z"/>
			<path class="st69" d="M925.57,269.02c0,0,6.74,8.27,25.59,9.9c0,0,3.59-5.47,3.25-16.17
				C954.4,262.75,937.08,261.09,925.57,269.02z"/>
			<path class="st69" d="M984.94,277.46v2.47c0,0,2.9,6.06,13.31,7.08c0,0,3.36-5.23,3.64-13.7
				C1001.88,273.32,995.26,271.66,984.94,277.46z"/>
			<path class="st70" d="M945.72,262.31c0,0-4.78,5.82-4.35,14.98c0,0,6.27,1.47,9.79,1.62c0,0,4.12-5.74,3.25-16.17
				C954.4,262.75,948.92,261.57,945.72,262.31z"/>
			<path class="st70" d="M994.82,273.61c0,0-2.71,2.9-3.22,11.79c0,0,3.71,1.62,6.65,1.62c0,0,3.79-5.38,3.64-13.7
				C1001.88,273.32,999.24,272.31,994.82,273.61z"/>
			<path class="st66" d="M944.17,277.93c0,0-1.71-11.48,4.86-15.87l5.38,0.68c0,0,1.79,9.09-3.25,16.17
				C951.16,278.91,945.81,278.31,944.17,277.93z"/>
			<path class="st66" d="M997.19,273.1c0,0-2.43,5.1-3.57,13.05c0,0,1.87,0.76,4.62,0.87c0,0,3.68-4.5,3.64-13.7
				C1001.88,273.32,999.08,272.57,997.19,273.1z"/>
			<path class="st71" d="M925.57,269.02c0,0,12.54-7.29,33.91-3.13l-3.97-3.01C955.51,262.88,940.28,258.14,925.57,269.02z"/>
			<path class="st71" d="M984.94,277.46c0,0,10.05-5.34,21.78-2.51l-4.83-3.58C1001.89,271.37,994.02,270.17,984.94,277.46z"/>
			<path class="st10" d="M939.13,269.02c0,0,3.41-0.75,6.48,2.35C945.61,271.37,941.41,272.61,939.13,269.02z"/>
			<path class="st10" d="M989.54,278.91c0,0,5.35-1.04,7.19,1.4C996.74,280.31,993.88,282.28,989.54,278.91z"/>
			<path class="st72" d="M926.83,270.26c0,0,9.74,9.64,25.35,11.94l0.4-5.68l-1.43,2.4C951.16,278.91,936.15,278.03,926.83,270.26z"
				/>
			<path class="st72" d="M984.94,279.94c0,0,1.73,6.23,14.43,9.04l-0.41-3.05l-0.71,1.09C998.25,287.02,989.22,285.87,984.94,279.94
				z"/>
			<path class="st73" d="M959.48,304.85c0,0,4.73-1.02,13.44,0c8.7,1.02,18.48,3.41,23.83,0c0,0-7.1,7.11-13.25,8.19
				s-15.53-4.32-15.53-4.32l-4.09,0.07C963.87,308.79,960.71,307.24,959.48,304.85z"/>
			<path class="st74" d="M964.47,308.78c0,0,2.13-1.37,3.92-1.03c1.79,0.34,3.61,2.95,3.61,2.95S968.22,308.69,964.47,308.78z"/>
			<path class="st75" d="M996.74,304.85c2.27-2.22-9.5-23.19-15.13-23.96c-5.63-0.78-10.92,23.51-10.92,23.51s7.83,1.1,15.42,2.11
				C993.71,307.52,996.74,304.85,996.74,304.85z"/>
			<linearGradient id="SVGID_60_" gradientUnits="userSpaceOnUse" x1="995.8032" y1="290.9413" x2="995.8032" y2="238.8249">
				<stop  offset="0" style="stop-color:#FEEADB"/>
				<stop  offset="0.9944" style="stop-color:#C27DB5"/>
			</linearGradient>
			<path class="st76" d="M1005.15,238.83c-3.19-0.41-14.45,13.29-14.45,13.29s-7.16,22.18-5.75,28.74
				c1.4,6.59,18.8,10.08,18.8,10.08l0.73-1.16v-0.03c-0.89-2.08-1.65-4.27-2.13-6.65c-1.38-6.81,1.57-22.34,3.7-35.06
				c0,0,0.7-2.62,0.78-5.05C1006.91,240.94,1006.61,239,1005.15,238.83z"/>
			<linearGradient id="SVGID_61_" gradientUnits="userSpaceOnUse" x1="944.1689" y1="397.8384" x2="944.1689" y2="144.9104">
				<stop  offset="0" style="stop-color:#343C98"/>
				<stop  offset="1" style="stop-color:#0A66A6"/>
			</linearGradient>
			<path class="st77" d="M1004.64,328.89c-3.59-7.51-1.38-11.43-32.58-15.51c-44.17-5.81-47.95,7.67-55.46,5.62
				c-0.27-0.08-0.59-0.19-0.89-0.32c-8.13-3.16-27.28-21.99-27.77-47.35c-0.51-26.36,17.15-45.06,17.15-45.06
				c-6.4-5.38-8.97-20.96-2.05-27.63c6.92-6.65,18.69-5.11,47.6-2.05c28.93,3.08,28.93,1.3,28.93,1.3
				c9.18,2.35,14.45,10.97,15.94,13.72c0.3,0.54,0.43,0.86,0.43,0.86l3.59-3.32c9.72,14.07,7.94,29.42,7.94,29.42
				s15.86-32.25,14.05-36.82c-3.3-8.43-12.45-20.72-13.02-21.5l-0.03-0.03c0,0-2.57-24.55-10.24-24.55c-7.67,0-40.44,7.4-40.44,7.4
				c3.59-8.43,3.08-18.15,3.08-18.15s-0.05,0.05-0.14,0.14c-10.7,9.59-21.15,10.64-35.95,17.5c-7.46,3.48-10.97,6.7-13.86,10.05
				l-1,1.19l-1.05,1.27c-1.03,1.3-2.08,2.62-3.35,3.97c-0.05,0.08-0.14,0.14-0.16,0.16c-0.05,0.05-0.08,0.08-0.08,0.08
				c-1.19,1.3-2.59,2.62-4.3,4.02c-9.72,7.91-31.12,13.21-33.68,21.58c-2.57,8.35,3.24,19.77,6.32,31.55
				c3.05,11.78,1.65,22.18,1.65,22.18s10.18,13.13,6.81,32.33c-3,17.21-9.56,20.02-9.56,20.02c-4.62,9.48-2.43,18.34-2.43,18.34
				c9.45,37.6,48.57,60,48.57,60c34.79,12.97,57.67,7.32,57.67,7.32s0,0,0.03-0.03c25.31-16.5,33.98-71.12,34.36-73.66
				C1010.29,323.6,1005.59,330.89,1004.64,328.89z M989.03,363.71c-6.13-1.03-7.43-16.56-9.45-18.61
				c-2.05-2.03-13.16-1.19-13.16-1.19s-10.24,11.62-14.32,11.94c-4.11,0.35-25.93-8.54-21.2-21.83c4.7-13.32,21.2-15.02,21.2-15.02
				s8.54,7.16,21.31,8c12.8,0.84,17.42-1.51,18.94-2.19c1.54-0.7,9.78,3.05,9.56,14.67C1001.78,347.56,995.19,364.74,989.03,363.71z
				"/>
			<path class="st78" d="M987.44,285.55c0,0,11.03,13.69,9.98,18.84c-1.15,5.64-13.93,8.64-13.93,8.64s10.24-3.53,12.34-8.64
				C995.83,304.39,993.2,294.02,987.44,285.55z"/>
			<linearGradient id="SVGID_62_" gradientUnits="userSpaceOnUse" x1="1010.6013" y1="238.5636" x2="1010.6013" y2="180.2161">
				<stop  offset="0" style="stop-color:#FEEADB"/>
				<stop  offset="0.9944" style="stop-color:#8062AA"/>
			</linearGradient>
			<path class="st79" d="M1007.48,238.56c0,0,1.78-15.34-7.94-29.42c7.81-13.94,8.94-28.93,8.94-28.93l0.03,0.03
				c2.65,6.51,4.16,19.18,4.16,19.18l8.86,2.32C1023.33,206.31,1007.48,238.56,1007.48,238.56z"/>
			<linearGradient id="SVGID_63_" gradientUnits="userSpaceOnUse" x1="931.0903" y1="397.8384" x2="931.0903" y2="144.9104">
				<stop  offset="0" style="stop-color:#CCC2DA"/>
				<stop  offset="0.9944" style="stop-color:#8062AA"/>
			</linearGradient>
			<path class="st80" d="M995.51,211.6c-1.49-2.76-6.75-11.37-15.94-13.72c0,0,0,1.78-28.93-1.3c-28.9-3.05-40.68-4.59-47.6,2.05
				c-6.92,6.67-4.35,22.26,2.05,27.63c0,0-17.67,18.69-17.15,45.06c0.49,25.36,19.64,44.19,27.77,47.35l-0.38,2.81
				c0,0,1.43,58.08,15.56,62.7c14.1,4.59,43.38,2.22,46.11,4.94c2.59,2.59-0.38,7.05-0.65,7.46c-0.03,0.03-0.03,0.03-0.03,0.03
				s-22.88,5.65-57.67-7.32c0,0-39.11-22.39-48.57-60c0,0-2.19-8.86,2.43-18.34c0,0,6.56-2.81,9.56-20.02
				c3.38-19.21-6.81-32.33-6.81-32.33s1.4-10.4-1.65-22.18c-3.08-11.78-8.89-23.2-6.32-31.55c16.37,2.57,27.12-5.97,27.12-5.97
				s2.86-3.97,15.53-6.02c12.67-2.05,63.59,3.08,63.59,3.08s-5.11-4.24-15.86-7.05c-10.16-2.67-44.84,0.43-48.57,0.73
				c3.97-0.7,43.3-7.46,47.79-6.1c4.75,1.4,21.77,9.21,21.77,9.21c-1.54-7.81-16.77-26.61-16.77-26.61s-21.5,0.38-35.58,3.32
				c-12.56,2.62-19.45,8.37-20.8,9.56l3.35-3.97l1.05-1.27l1-1.19l4.92-0.84l24.69-9.97c8.29-4.43,18.91-15.4,20.21-16.75
				c0.08-0.08,0.14-0.14,0.14-0.14s0.51,9.72-3.08,18.15c20.85-2.57,27.9-1.27,27.9-1.27C995.19,175.22,995.51,211.6,995.51,211.6z"
				/>
			<linearGradient id="SVGID_64_" gradientUnits="userSpaceOnUse" x1="948.05" y1="397.7785" x2="948.05" y2="386.9116">
				<stop  offset="0" style="stop-color:#786E7F"/>
				<stop  offset="1" style="stop-color:#976AAD"/>
			</linearGradient>
			<path class="st81" d="M918.66,389.29c0,0,12.78-3.03,32.08-2.26c19.29,0.78,30.38,0.86,25.6,9.58
				C976.33,396.62,952.1,402.09,918.66,389.29z"/>
			<linearGradient id="SVGID_65_" gradientUnits="userSpaceOnUse" x1="979.9316" y1="163.063" x2="979.9316" y2="154.9898">
				<stop  offset="0" style="stop-color:#3676BB"/>
				<stop  offset="1" style="stop-color:#0E86C8"/>
			</linearGradient>
			<path class="st82" d="M985.7,161.79c0,0,11.73-4.58,16.36-3.82c0,0-1.83-2.45-3.75-2.96c-1.92-0.51-40.51,8.05-40.51,8.05
				S981.86,160.26,985.7,161.79z"/>
			<linearGradient id="SVGID_66_" gradientUnits="userSpaceOnUse" x1="928.5012" y1="189.6435" x2="928.5012" y2="165.7735">
				<stop  offset="0" style="stop-color:#3676BB"/>
				<stop  offset="1" style="stop-color:#0E86C8"/>
			</linearGradient>
			<path class="st83" d="M961.91,166.14c0,0-0.92,12.77-5,17.4l-47.79,6.1l-14.03-2.47c0,0,5.43-2.32,11.39-9.28
				C912.45,170.93,943.61,164.09,961.91,166.14z"/>
			<linearGradient id="SVGID_67_" gradientUnits="userSpaceOnUse" x1="1015" y1="201.7452" x2="1015" y2="180.2161">
				<stop  offset="0" style="stop-color:#3676BB"/>
				<stop  offset="1" style="stop-color:#0E86C8"/>
			</linearGradient>
			<path class="st84" d="M1008.48,180.22c0,0,3.89,12.56,4.19,19.21l8.86,2.32C1021.52,201.75,1018.83,192.24,1008.48,180.22z"/>
			<linearGradient id="SVGID_68_" gradientUnits="userSpaceOnUse" x1="872.5765" y1="296.485" x2="845.0349" y2="262.7432">
				<stop  offset="0" style="stop-color:#FEEADB"/>
				<stop  offset="0.9944" style="stop-color:#8F68AD"/>
			</linearGradient>
			<path class="st85" d="M878.27,288.98c0,0-3.36-16.12-11.6-24.1c-8.24-7.98-17.62-5.42-17.62-5.42s2.56,29.9,5.25,37.19
				c2.69,7.29,6.78,9.21,6.78,9.21s-5.76-5.04-6.53-14.93s-1.02-23.84,1.15-25.5c2.18-1.66,10.97,4.82,10.97,4.82
				s-2.78,3.4-4.44,12.21c-1.66,8.81,4.48,15.21,6.78,15.08c2.3-0.13-0.13-10.19,0.26-13.09S874.77,282.2,878.27,288.98z"/>
			<linearGradient id="SVGID_69_" gradientUnits="userSpaceOnUse" x1="875.4597" y1="292.1389" x2="861.9084" y2="275.5369">
				<stop  offset="0" style="stop-color:#FEEADB"/>
				<stop  offset="0.9944" style="stop-color:#8F68AD"/>
			</linearGradient>
			<path class="st86" d="M870.05,268.94c0,0-8.99,5.91-8.02,18.03c0.97,12.12,7.9,11.59,7.92,9.05c0.02-2.54-1.32-9.09-0.62-12.8
				c0.7-3.7,6.68-2.03,6.68-2.03S872.08,271.57,870.05,268.94z"/>
			<path class="st87" d="M1010.72,322.92c0,0-11.18,50.98-34.39,73.69C976.33,396.62,1002.8,386.21,1010.72,322.92z"/>
			<path class="st87" d="M998.31,155.01c0,0,5.9,4.58,7.02,20.52c1.12,15.93-5.79,33.62-5.79,33.62s8.86-13.23,9.71-27.73
				C1010.1,166.91,1002.98,156.85,998.31,155.01z"/>
		</g>
		<linearGradient id="SVGID_70_" gradientUnits="userSpaceOnUse" x1="926.9066" y1="191.7785" x2="973.5489" y2="191.7785">
			<stop  offset="0" style="stop-color:#3676BB"/>
			<stop  offset="1" style="stop-color:#0E86C8"/>
		</linearGradient>
		<path class="st88" d="M926.91,188.37c0,0,13.64,4.65,28.6,5.97c14.96,1.32,18.04,1.62,18.04,1.62s-6.01-5.83-18.82-7.59
			C941.92,186.62,926.91,188.37,926.91,188.37z"/>
		<linearGradient id="SVGID_71_" gradientUnits="userSpaceOnUse" x1="992.6939" y1="331.2679" x2="1006.8408" y2="331.2679">
			<stop  offset="0" style="stop-color:#3676BB"/>
			<stop  offset="1" style="stop-color:#0E86C8"/>
		</linearGradient>
		<path class="st89" d="M992.82,324.04c0,0,6.53,0,9.09,8.19c2.05,6.53,2.61,12.16,2.61,12.16l2.31-8.98c0,0-3.01-11.37-6.15-13.93
			c-2.26-1.84-6.15-3.71-8-3.26L992.82,324.04z"/>
		<linearGradient id="SVGID_72_" gradientUnits="userSpaceOnUse" x1="975.228" y1="320.7485" x2="990.4865" y2="320.7485">
			<stop  offset="0" style="stop-color:#3676BB"/>
			<stop  offset="1" style="stop-color:#0E86C8"/>
		</linearGradient>
		<path class="st90" d="M975.23,315.85l1.1,9.72c0,0,7.95,0.64,13.21-1.54l0.94-5.89C990.49,318.15,980.35,315.6,975.23,315.85z"/>
		<path class="st87" d="M1011.5,441.54c0,0,46.53,33.99,52.57,45.68c6.04,11.69,8.48,48.36,16.65,64.23c0,0-5.58-25.95-9.5-46.31
			c-3.92-20.35-2.98-20.64-5.15-25.63C1063.9,474.52,1029.14,450.4,1011.5,441.54z"/>
		<path class="st87" d="M1003.16,630.74c0,0-22.43,96.01-21.41,102.5c1.02,6.49,15.54,19.72,16.21,23.35c0,0-11.1,14.86-10.58,18.15
			s19.45,24.11,18.94,30.54c-0.15,1.87-12.43,22.13-12.43,22.13s13.88-19.92,14.56-23.1c0.68-3.18-17.01-29.78-17.53-32.49
			c-1.34-7,8.83-12.15,9.17-16.75c0.34-4.61-13.76-15.86-13.88-23.37C986.1,724.2,1003.16,630.74,1003.16,630.74z"/>
		<path class="st87" d="M1007.72,859.61c0,0,48.49,109.77,65.02,219.53C1072.74,1079.15,1069.98,972.03,1007.72,859.61z"/>
		<path class="st75" d="M700.29,419.49c0,0-12.55-2.68-17.75-13.62c-5.2-10.94-1.81-26.79-1.81-26.79s9.82,18.84,14.71,25.28
			C700.34,410.79,701.65,418.13,700.29,419.49z"/>
	</g>
	<g class="st1">
		<path class="st91" d="M1087.4,362.27l8.7,247.96c0.34,9.84,8.42,17.63,18.26,17.63h427.16c9.92,0,18.03-7.92,18.27-17.84
			l5.98-250.87c0.25-10.31-8.08-18.77-18.39-18.71l-441.83,2.9C1095.25,343.42,1087.04,351.98,1087.4,362.27z"/>
		<g>
			<path class="st92" d="M1541.52,628.54h-427.16c-10.26,0-18.57-8.03-18.94-18.28l-8.7-247.96c-0.18-5.16,1.69-10.05,5.26-13.78
				c3.57-3.73,8.39-5.8,13.55-5.83l441.84-2.9c5.13,0.02,10.01,1.98,13.64,5.67c3.62,3.69,5.55,8.56,5.43,13.73l-5.98,250.86
				C1560.21,620.41,1551.89,628.54,1541.52,628.54z M1547.5,341.13c-0.04,0-0.08,0-0.12,0l-441.83,2.9
				c-4.8,0.03-9.26,1.96-12.58,5.42c-3.32,3.46-5.05,8-4.89,12.8l8.7,247.96c0.34,9.52,8.06,16.98,17.58,16.98h427.16
				c9.47,0,17.37-7.71,17.59-17.18l5.98-250.86c0.11-4.8-1.68-9.33-5.04-12.75C1556.71,343,1552.26,341.13,1547.5,341.13z"/>
		</g>
		<linearGradient id="SVGID_73_" gradientUnits="userSpaceOnUse" x1="1087.7747" y1="357.7607" x2="1566.0582" y2="357.7607">
			<stop  offset="0" style="stop-color:#976AAD"/>
			<stop  offset="1" style="stop-color:#B2C0E2"/>
		</linearGradient>
		<path class="st93" d="M1088.04,374.9h477.22l0.77-13.08c0.68-11.56-8.57-21.29-20.15-21.2l-441.66,3.49
			c-9.22,0.07-16.61,7.66-16.43,16.88L1088.04,374.9z"/>
		<linearGradient id="SVGID_74_" gradientUnits="userSpaceOnUse" x1="1185.0695" y1="538.404" x2="1185.0695" y2="394.15">
			<stop  offset="0" style="stop-color:#CDECFC"/>
			<stop  offset="1" style="stop-color:#976AAD"/>
		</linearGradient>
		<polygon class="st94" points="1112.03,394.9 1112.03,538.4 1258.11,538.4 1258.11,394.15 		"/>
		<linearGradient id="SVGID_75_" gradientUnits="userSpaceOnUse" x1="1431.0443" y1="468.0733" x2="1431.0443" y2="404.5323">
			<stop  offset="0" style="stop-color:#CDECFC"/>
			<stop  offset="1" style="stop-color:#976AAD"/>
		</linearGradient>
		<rect x="1399.27" y="404.53" class="st95" width="63.54" height="63.54"/>
		<linearGradient id="SVGID_76_" gradientUnits="userSpaceOnUse" x1="1506.014" y1="468.0733" x2="1506.014" y2="404.5323">
			<stop  offset="0" style="stop-color:#CDECFC"/>
			<stop  offset="1" style="stop-color:#976AAD"/>
		</linearGradient>
		<rect x="1474.24" y="404.53" class="st96" width="63.54" height="63.54"/>
		<linearGradient id="SVGID_77_" gradientUnits="userSpaceOnUse" x1="1354.8219" y1="468.0733" x2="1354.8219" y2="404.5323">
			<stop  offset="0" style="stop-color:#CDECFC"/>
			<stop  offset="1" style="stop-color:#976AAD"/>
		</linearGradient>
		<rect x="1323.05" y="404.53" class="st97" width="63.54" height="63.54"/>
		<rect x="1375.29" y="505.12" class="st98" width="162.49" height="15.22"/>
		<rect x="1334.65" y="528.28" class="st98" width="203.13" height="4.71"/>
		<rect x="1336.57" y="476.18" class="st98" width="38.86" height="4.71"/>
		<rect x="1411.61" y="476.18" class="st98" width="38.86" height="4.71"/>
		<rect x="1486.58" y="476.18" class="st98" width="38.86" height="4.71"/>
		<rect x="1323.05" y="535.94" class="st98" width="65.34" height="4.71"/>
		<rect x="1334.65" y="543.5" class="st98" width="203.13" height="4.71"/>
		<rect x="1323.05" y="551.07" class="st98" width="214.73" height="4.71"/>
		<rect x="1323.05" y="558.64" class="st98" width="214.73" height="4.71"/>
		<rect x="1334.65" y="589.22" class="st98" width="203.13" height="4.71"/>
		<rect x="1323.05" y="596.79" class="st98" width="214.73" height="4.71"/>
		<rect x="1323.05" y="604.36" class="st98" width="214.73" height="4.71"/>
		<rect x="1323.05" y="566.2" class="st98" width="206.09" height="4.71"/>
		<rect x="1334.65" y="573.77" class="st98" width="203.13" height="4.71"/>
		<rect x="1323.05" y="581.33" class="st98" width="173.98" height="4.71"/>
		<g>
			<path class="st99" d="M1152.96,509.63c-22.91,0-41.56-18.64-41.56-41.55c0-22.91,18.64-41.56,41.56-41.56
				c22.91,0,41.55,18.64,41.55,41.56C1194.51,490.99,1175.87,509.63,1152.96,509.63z M1152.96,429.22
				c-21.43,0-38.85,17.43-38.85,38.85c0,21.42,17.43,38.85,38.85,38.85c21.42,0,38.85-17.43,38.85-38.85
				C1191.81,446.65,1174.38,429.22,1152.96,429.22z"/>
		</g>
		<circle class="st10" cx="1152.96" cy="468.07" r="22.58"/>
		<g>
			<path class="st99" d="M1258.11,435.7c-22.91,0-41.56-18.64-41.56-41.55c0-22.91,18.64-41.56,41.56-41.56
				c22.91,0,41.55,18.64,41.55,41.56C1299.66,417.06,1281.02,435.7,1258.11,435.7z M1258.11,355.3c-21.43,0-38.85,17.43-38.85,38.85
				c0,21.42,17.43,38.85,38.85,38.85c21.42,0,38.85-17.43,38.85-38.85C1296.96,372.73,1279.53,355.3,1258.11,355.3z"/>
		</g>
		
			<ellipse transform="matrix(0.1554 -0.9878 0.9878 0.1554 673.1835 1575.6963)" class="st10" cx="1258.11" cy="394.15" rx="21.25" ry="21.25"/>
		<g>
			<polygon class="st10" points="1104.76,355.42 1107.8,350.82 1124.21,365.21 1121.7,368.72 			"/>
			<polygon class="st10" points="1124.64,355.42 1121.6,350.82 1105.18,365.21 1107.7,368.72 			"/>
		</g>
		<rect x="1406.65" y="353.95" class="st10" width="147.06" height="7.37"/>
	</g>
	<g class="st1">
		<linearGradient id="SVGID_78_" gradientUnits="userSpaceOnUse" x1="671.4331" y1="311.9502" x2="671.4331" y2="245.4394">
			<stop  offset="0" style="stop-color:#AD55A1"/>
			<stop  offset="1" style="stop-color:#F171AB"/>
		</linearGradient>
		<polygon class="st100" points="632.75,247.49 632.75,311.3 709.08,311.95 710.11,245.44 		"/>
		<linearGradient id="SVGID_79_" gradientUnits="userSpaceOnUse" x1="712.087" y1="311.9502" x2="712.087" y2="245.4394">
			<stop  offset="0" style="stop-color:#8458A4"/>
			<stop  offset="1" style="stop-color:#ED247E"/>
		</linearGradient>
		<polygon class="st101" points="710.11,245.44 715.09,253.82 712.6,311.89 709.08,311.95 		"/>
		<polygon class="st10" points="646.38,269.02 653.43,258.79 691.55,290.78 685.7,298.58 		"/>
		<polygon class="st10" points="692.53,269.02 685.48,258.79 647.36,290.78 653.21,298.58 		"/>
	</g>
	<g class="st1">
		<linearGradient id="SVGID_80_" gradientUnits="userSpaceOnUse" x1="659.8922" y1="1012.6138" x2="695.8593" y2="726.2407">
			<stop  offset="0" style="stop-color:#4577BC"/>
			<stop  offset="1" style="stop-color:#423E99"/>
		</linearGradient>
		<path class="st102" d="M810.82,998.6H549.64c-11.62,0-21.12-9.28-21.38-20.9l-4.88-214.23c-0.27-12,9.38-21.88,21.39-21.88H816.7
			c12.04,0,21.71,9.94,21.38,21.98l-5.88,214.23C831.89,989.37,822.41,998.6,810.82,998.6z"/>
		<g>
			<path class="st103" d="M810.82,999.27H549.64c-11.89,0-21.79-9.67-22.06-21.56l-4.88-214.23c-0.14-5.99,2.09-11.65,6.28-15.93
				c4.19-4.28,9.79-6.64,15.78-6.64H816.7c6.01,0,11.63,2.37,15.82,6.68c4.19,4.3,6.41,9.98,6.24,15.99l-5.88,214.23
				C832.55,989.85,822.86,999.27,810.82,999.27z M544.76,742.26c-5.62,0-10.88,2.21-14.81,6.23c-3.93,4.02-6.03,9.33-5.9,14.95
				l4.88,214.23c0.25,11.16,9.54,20.24,20.71,20.24h261.18c11.3,0,20.4-8.85,20.71-20.15l5.88-214.23
				c0.15-5.64-1.93-10.97-5.86-15.01c-3.93-4.04-9.21-6.27-14.85-6.27H544.76z"/>
		</g>
		<g>
			<rect x="593.78" y="785.41" class="st10" width="137.36" height="5.88"/>
			<rect x="593.78" y="799.71" class="st10" width="68.68" height="5.88"/>
			<rect x="593.78" y="811.65" class="st10" width="68.68" height="5.88"/>
			<rect x="670.17" y="811.65" class="st10" width="54.64" height="5.88"/>
			<rect x="593.78" y="823.6" class="st10" width="110.72" height="5.88"/>
			<rect x="593.78" y="835.54" class="st10" width="39.41" height="5.88"/>
			<rect x="641.3" y="871.37" class="st10" width="68.16" height="5.88"/>
			<rect x="593.78" y="847.48" class="st10" width="123.52" height="5.88"/>
			<rect x="593.78" y="859.42" class="st10" width="95.03" height="5.88"/>
			<rect x="593.78" y="871.37" class="st10" width="44.7" height="5.88"/>
			<rect x="593.78" y="883.31" class="st10" width="68.68" height="5.88"/>
			<rect x="593.78" y="895.25" class="st10" width="19.71" height="5.88"/>
			<rect x="621.59" y="895.25" class="st10" width="71.48" height="5.88"/>
			<rect x="641.3" y="906.84" class="st10" width="68.16" height="5.88"/>
			<rect x="593.78" y="906.84" class="st10" width="44.7" height="5.88"/>
			<rect x="593.78" y="918.78" class="st10" width="68.68" height="5.88"/>
			<rect x="593.78" y="930.72" class="st10" width="19.71" height="5.88"/>
			<rect x="621.59" y="930.72" class="st10" width="71.48" height="5.88"/>
		</g>
	</g>
	<linearGradient id="SVGID_81_" gradientUnits="userSpaceOnUse" x1="1499.5925" y1="304.7132" x2="1499.5925" y2="280.5714">
		<stop  offset="0" style="stop-color:#6197D0"/>
		<stop  offset="1" style="stop-color:#8B71B2"/>
	</linearGradient>
	<path class="st104" d="M1511.66,292.64c0,6.67-5.4,12.07-12.07,12.07c-6.67,0-12.07-5.4-12.07-12.07s5.4-12.07,12.07-12.07
		C1506.26,280.57,1511.66,285.98,1511.66,292.64z"/>
	<linearGradient id="SVGID_82_" gradientUnits="userSpaceOnUse" x1="365.0752" y1="587.6177" x2="365.0752" y2="557.5706">
		<stop  offset="0" style="stop-color:#6197D0"/>
		<stop  offset="1" style="stop-color:#8B71B2"/>
	</linearGradient>
	<path class="st105" d="M380.1,572.59c0,8.3-6.73,15.02-15.02,15.02c-8.3,0-15.02-6.73-15.02-15.02s6.73-15.02,15.02-15.02
		C373.37,557.57,380.1,564.3,380.1,572.59z"/>
	<linearGradient id="SVGID_83_" gradientUnits="userSpaceOnUse" x1="1535.0471" y1="304.7132" x2="1535.0471" y2="280.5714">
		<stop  offset="0" style="stop-color:#B31E8E"/>
		<stop  offset="1" style="stop-color:#ED247E"/>
	</linearGradient>
	<circle class="st106" cx="1535.05" cy="292.64" r="12.07"/>
	<linearGradient id="SVGID_84_" gradientUnits="userSpaceOnUse" x1="756.6185" y1="384.1774" x2="756.6185" y2="367.1064">
		<stop  offset="0" style="stop-color:#B31E8E"/>
		<stop  offset="1" style="stop-color:#ED247E"/>
	</linearGradient>
	<circle class="st107" cx="756.62" cy="375.64" r="8.54"/>
	<linearGradient id="SVGID_85_" gradientUnits="userSpaceOnUse" x1="1328.361" y1="760.8367" x2="1328.361" y2="743.7657">
		<stop  offset="0" style="stop-color:#85459A"/>
		<stop  offset="1" style="stop-color:#645BA7"/>
	</linearGradient>
	<circle class="st108" cx="1328.36" cy="752.3" r="8.54"/>
	<linearGradient id="SVGID_86_" gradientUnits="userSpaceOnUse" x1="440.934" y1="845.0341" x2="440.934" y2="829.7729">
		<stop  offset="0" style="stop-color:#85459A"/>
		<stop  offset="1" style="stop-color:#645BA7"/>
	</linearGradient>
	<circle class="st109" cx="440.93" cy="837.4" r="7.63"/>
	<g class="st1">
		<linearGradient id="SVGID_87_" gradientUnits="userSpaceOnUse" x1="504.9673" y1="762.4796" x2="504.9673" y2="636.4311">
			<stop  offset="0" style="stop-color:#AA4B9C"/>
			<stop  offset="1" style="stop-color:#CE7DB4"/>
		</linearGradient>
		<path class="st110" d="M571.02,762.48H439.2c-10.61,0-19.3-8.41-19.66-19.01l-2.93-86.7c-0.38-11.12,8.54-20.34,19.66-20.34h137.4
			c11.1,0,20,9.18,19.66,20.28l-2.65,86.7C590.36,754.03,581.65,762.48,571.02,762.48z"/>
		<g>
			<path class="st111" d="M571.02,763.16H439.2c-11.03,0-19.97-8.64-20.34-19.66l-2.93-86.7c-0.19-5.56,1.84-10.83,5.71-14.83
				c3.87-4,9.06-6.2,14.63-6.2h137.4c5.55,0,10.74,2.19,14.61,6.18c3.87,3.99,5.9,9.24,5.73,14.79l-2.65,86.7
				C591.02,754.49,582.08,763.16,571.02,763.16z M436.27,637.11c-5.2,0-10.05,2.06-13.66,5.79c-3.61,3.74-5.51,8.66-5.33,13.85
				l2.93,86.7c0.35,10.3,8.69,18.36,18.99,18.36h131.82c10.33,0,18.67-8.09,18.99-18.42l2.65-86.7c0.16-5.18-1.74-10.08-5.35-13.81
				c-3.61-3.72-8.45-5.77-13.64-5.77H436.27z"/>
		</g>
		<g>
			<polygon class="st10" points="474.34,667.58 441.84,705.25 474.94,733.35 474.94,718.85 455.79,702.27 473.57,682.17 			"/>
		</g>
		<g>
			<polygon class="st10" points="531.47,669.27 563.97,706.94 530.87,735.04 530.87,720.54 550.02,703.96 528.71,681.42 			"/>
		</g>
		<g>
			<polygon class="st10" points="481.42,733.35 509.74,670.96 523.05,670.96 490.97,733.35 			"/>
		</g>
	</g>
	<g class="st1">
		<linearGradient id="SVGID_88_" gradientUnits="userSpaceOnUse" x1="1375.2935" y1="940.899" x2="1375.2935" y2="783.2143">
			<stop  offset="0" style="stop-color:#AA4B9C"/>
			<stop  offset="1" style="stop-color:#CE7DB4"/>
		</linearGradient>
		<path class="st112" d="M1457.92,940.9h-164.9c-13.27,0-24.15-10.52-24.6-23.78l-3.66-108.46c-0.47-13.91,10.68-25.44,24.6-25.44
			h171.88c13.89,0,25.02,11.48,24.6,25.36l-3.32,108.46C1482.11,930.33,1471.22,940.9,1457.92,940.9z"/>
		<g>
			<path class="st111" d="M1457.92,941.57h-164.9c-13.71,0-24.81-10.73-25.27-24.43l-3.66-108.46c-0.23-6.91,2.29-13.46,7.09-18.43
				c4.81-4.97,11.26-7.71,18.18-7.71h171.88c6.9,0,13.35,2.73,18.15,7.68c4.81,4.95,7.34,11.48,7.13,18.38l-3.32,108.46
				C1482.78,930.81,1471.67,941.57,1457.92,941.57z M1289.35,783.89c-6.54,0-12.66,2.59-17.21,7.3c-4.55,4.71-6.94,10.9-6.71,17.44
				l3.66,108.46c0.44,12.97,10.94,23.13,23.92,23.13h164.9c13.02,0,23.53-10.19,23.93-23.21l3.32-108.46
				c0.2-6.53-2.2-12.71-6.75-17.4c-4.55-4.69-10.65-7.27-17.18-7.27H1289.35z"/>
		</g>
		<rect x="1297.8" y="800.68" class="st98" width="151.03" height="89.7"/>
		<polygon class="st10" points="1359.94,822.93 1359.94,868.12 1398.54,843.46 		"/>
		<rect x="1297.8" y="906.91" class="st98" width="151.03" height="8.2"/>
		<rect x="1297.8" y="906.91" class="st10" width="39.1" height="8.2"/>
	</g>
	<g class="st1">
		<g>
			
				<linearGradient id="SVGID_89_" gradientUnits="userSpaceOnUse" x1="1239.2163" y1="771.657" x2="1225.7805" y2="656.3369" gradientTransform="matrix(0.9656 0.26 -0.26 0.9656 174.7373 -214.585)">
				<stop  offset="0" style="stop-color:#1B53A0"/>
				<stop  offset="1" style="stop-color:#2B7CC1"/>
			</linearGradient>
			<path class="st113" d="M1187.15,772.32l-7.88,22.55C1183.62,782.41,1189.89,774.32,1187.15,772.32z M1179.27,794.87l-7.9,22.55
				C1173.36,816.83,1174.9,807.33,1179.27,794.87z M1187.15,772.32l-7.88,22.55C1183.62,782.41,1189.89,774.32,1187.15,772.32z
				 M1179.27,794.87l-7.9,22.55C1173.36,816.83,1174.9,807.33,1179.27,794.87z M1202.03,814.41l7.66,4.34l8.26-22.56l-8.86-1.48
				c0.16-0.84,0.32-1.68,0.43-2.5c0.64-3.87,0.86-7.65,0.75-11.24l9.26-5.81l-4.22-19.87l-8.88,8.49c-1.23-2.54-2.76-4.76-4.54-6.62
				c-0.49-0.54-1.01-1.04-1.54-1.5l5.43-12.53l-14.45-4.7l0,0l-3.47,12.63c-3.23,0.01-6.52,0.82-9.78,2.29l-1.59-11.94l-15.91,12.04
				l3.67,10.58c-2.87,3.27-5.49,7.05-7.76,11.3l-7.66-4.32l-8.26,22.56l8.86,1.48c-0.94,4.76-1.31,9.38-1.17,13.75l-9.26,5.81
				l4.22,19.87l8.88-8.49c1.59,3.25,3.62,5.99,6.08,8.09l-5.43,12.55l14.22,5.54l2.2-8.01l1.49-5.47c3.23-0.01,6.54-0.81,9.8-2.28
				l1.57,11.94l15.91-12.04l-3.67-10.58c2.25-2.58,4.36-5.46,6.26-8.65C1201.05,816.2,1201.53,815.32,1202.03,814.41z
				 M1179.27,794.87c-4.37,12.46,0,25.31-7.9,22.55c-7.92-2.79-10.8-15.12-6.44-27.56c4.37-12.46,14.31-20.3,22.22-17.54
				C1195.07,775.09,1183.62,782.41,1179.27,794.87z M1187.15,772.32l-7.88,22.55C1183.62,782.41,1189.89,774.32,1187.15,772.32z
				 M1179.27,794.87l-7.9,22.55C1173.36,816.83,1174.9,807.33,1179.27,794.87z"/>
		</g>
		
			<linearGradient id="SVGID_90_" gradientUnits="userSpaceOnUse" x1="1226.1924" y1="772.0938" x2="1226.1924" y2="653.9279" gradientTransform="matrix(0.9656 0.26 -0.26 0.9656 174.7373 -214.585)">
			<stop  offset="0" style="stop-color:#1B53A0"/>
			<stop  offset="1" style="stop-color:#2B7CC1"/>
		</linearGradient>
		<path class="st114" d="M1209.68,818.75l8.26-22.56l-8.43-3.99l-1.36-0.64l0.89-12.43l9.36-4.57l-3.09-19.3l-20.38-6.64l3.75,8.95
			l7.1-14.48l-14.45-4.7l-5.93-1.94l-14.24-5.55l-2.66,9.71l-12.39-5.89l-15.91,12.04l4.83,13.02l-14.87,41.23l-7.35,26.78
			l14.12,1.55l-4.6,10.61l14.24,5.55l20.38,6.64l-3.27-6.55l-2.06-3.92l7.53,2.46l12.87,4.19l15.91-12.04l-9.84-11.59l12.42-7.65
			L1209.68,818.75z M1164.93,789.86c4.37-12.46,14.31-20.3,22.22-17.54l-7.88,22.55l-7.9,22.55
			C1163.46,814.63,1160.57,802.3,1164.93,789.86z"/>
		<g>
			
				<linearGradient id="SVGID_91_" gradientUnits="userSpaceOnUse" x1="1190.1849" y1="720.9085" x2="1181.4941" y2="646.3159" gradientTransform="matrix(0.9438 0.3306 -0.5202 1.4851 395.2959 -619.0443)">
				<stop  offset="0" style="stop-color:#198DC2"/>
				<stop  offset="1" style="stop-color:#0BC0E8"/>
			</linearGradient>
			<path class="st115" d="M1189.3,812.1l8.26-22.56l-8.86-1.48c0.93-4.74,1.31-9.36,1.18-13.73l9.26-5.81l-4.22-19.88l-8.88,8.48
				c-1.58-3.25-3.61-5.99-6.08-8.11l5.44-12.54l-14.23-5.55l-3.69,13.47c-3.23,0.01-6.53,0.82-9.79,2.28l-1.58-11.93l-15.91,12.03
				l3.66,10.58c-2.86,3.27-5.48,7.07-7.76,11.31l-7.66-4.32l-8.26,22.56l8.86,1.48c-0.93,4.74-1.31,9.36-1.18,13.73l-9.26,5.81
				l4.22,19.88l8.88-8.48c1.58,3.25,3.61,5.99,6.08,8.11l-5.43,12.54l14.23,5.55l3.69-13.47c3.23-0.01,6.53-0.82,9.79-2.28
				l1.58,11.93l15.91-12.03l-3.66-10.58c2.86-3.27,5.48-7.07,7.76-11.31L1189.3,812.1z M1150.98,810.77
				c-7.91-2.77-10.79-15.11-6.43-27.56c4.36-12.45,14.31-20.3,22.22-17.53c7.91,2.77,10.79,15.11,6.43,27.56
				C1168.84,805.7,1158.89,813.54,1150.98,810.77z"/>
		</g>
		<polygon class="st116" points="1219.53,775.15 1199.15,768.51 1189.88,774.33 1210.27,780.96 		"/>
		<polygon class="st117" points="1197.94,836.31 1177.54,829.67 1173.88,819.09 1194.26,825.73 		"/>
		<polygon class="st116" points="1179.97,749.02 1191.14,752.25 1194.92,748.64 1202.34,751.06 1205.78,743.12 1185.4,736.48 		"/>
		<path class="st116" d="M1150.27,832.06l10.68,4.44l-0.89-6.73C1160.06,829.77,1154.32,832.8,1150.27,832.06z"/>
		<path class="st116" d="M1151.92,770.94l17.98,9.5c0,0,2.61-3.49,4.62-4.9C1174.52,775.55,1169.83,755.73,1151.92,770.94z"/>
	</g>
	<polygon class="st118" points="739.29,98.48 756.62,133.19 745.04,138.46 728.84,106.58 	"/>
	<polygon class="st119" points="349.09,907.09 365.13,924.68 371.42,917.42 356.28,900.75 	"/>
	<polygon class="st120" points="1164.27,310.28 1148.12,320.08 1141.64,307.8 1159.3,297.49 	"/>
	<polygon class="st120" points="1243.81,930.8 1220.66,947.24 1214.18,934.97 1236.66,921.84 	"/>
	<g class="st1">
		<linearGradient id="SVGID_92_" gradientUnits="userSpaceOnUse" x1="1251.3512" y1="236.6118" x2="1281.9608" y2="122.9334">
			<stop  offset="0" style="stop-color:#198DC2"/>
			<stop  offset="1" style="stop-color:#0BC0E8"/>
		</linearGradient>
		<polygon class="st121" points="1213.23,226.35 1209.32,135.43 1328.36,135.43 1323.47,226.09 		"/>
		<linearGradient id="SVGID_93_" gradientUnits="userSpaceOnUse" x1="1198.7367" y1="223.4976" x2="1221.563" y2="138.7252">
			<stop  offset="0" style="stop-color:#1B53A0"/>
			<stop  offset="1" style="stop-color:#2B7CC1"/>
		</linearGradient>
		<polygon class="st122" points="1209.32,135.43 1205.75,140.79 1209.32,226.35 1213.23,226.35 		"/>
		<polygon class="st10" points="1248.84,153.58 1230.16,151.58 1232.72,213.88 1248.84,212.3 1248.84,205.85 1239.5,206.07 
			1238.44,158.03 1248.84,158.33 		"/>
		<polygon class="st10" points="1287.1,153.58 1305.78,151.58 1303.22,213.88 1287.1,212.3 1287.1,205.85 1296.44,206.07 
			1297.51,158.03 1287.1,158.33 		"/>
	</g>
	<g class="st1">
		
			<linearGradient id="SVGID_94_" gradientUnits="userSpaceOnUse" x1="1160.2954" y1="432.3822" x2="1181.1626" y2="354.8851" gradientTransform="matrix(-1 0 0 1 1526.6559 0)">
			<stop  offset="0" style="stop-color:#198DC2"/>
			<stop  offset="1" style="stop-color:#0BC0E8"/>
		</linearGradient>
		<polygon class="st123" points="392.35,425.38 395.02,363.4 313.86,363.4 317.2,425.21 		"/>
		
			<linearGradient id="SVGID_95_" gradientUnits="userSpaceOnUse" x1="1124.4269" y1="423.4419" x2="1139.988" y2="365.6507" gradientTransform="matrix(-1 0 0 1 1526.6559 0)">
			<stop  offset="0" style="stop-color:#1B53A0"/>
			<stop  offset="1" style="stop-color:#2B7CC1"/>
		</linearGradient>
		<polygon class="st124" points="395.02,363.4 397.45,367.06 395.02,425.38 392.35,425.38 		"/>
		<path class="st10" d="M363.75,375.87c0,0,8.9-0.34,10.47,0.38c1.57,0.72-0.41,15.22-0.41,15.22l3.55,3.26l-3.31,3.21
			c0,0,0.17,14.7-1.92,15.92c-2.09,1.22-9.25,0-9.25,0v-3.66c0,0,5.84,0.37,6.8-0.42c0.96-0.78,0.87-13.63,0.87-13.63l1.57-1.72
			l-1.57-1.86c0,0,0.29-9.15,0.12-11.66c-0.12-1.67-6.92-1.76-6.92-1.76V375.87z"/>
		<path class="st10" d="M343.37,375.87c0,0-8.9-0.34-10.47,0.38s0.41,15.22,0.41,15.22l-3.55,3.26l3.31,3.21
			c0,0-0.17,14.7,1.92,15.92c2.09,1.22,9.25,0,9.25,0v-3.66c0,0-5.84,0.37-6.8-0.42c-0.96-0.78-0.87-13.63-0.87-13.63l-1.57-1.72
			l1.57-1.86c0,0-0.29-9.15-0.12-11.66c0.12-1.67,6.92-1.76,6.92-1.76V375.87z"/>
	</g>
	<g class="st1">
		<g>
			<path class="st92" d="M1077.14,234.54l-19.89-52.05l51.57,10.77L1077.14,234.54z M1059.39,184.32l18.15,47.48l28.91-37.65
				L1059.39,184.32z"/>
		</g>
		<g>
			
				<rect x="1213.1" y="959.51" transform="matrix(0.5912 -0.8065 0.8065 0.5912 -272.4588 1382.8378)" class="st92" width="29.55" height="1.35"/>
		</g>
		<g>
			<polygon class="st92" points="1055.68,752.72 1036.92,729.37 1037.98,728.53 1056.74,751.88 			"/>
		</g>
		<g>
			<polygon class="st92" points="476.72,916.75 439.26,889.57 440.06,888.48 477.51,915.65 			"/>
		</g>
		<g>
			
				<rect x="435.25" y="901.94" transform="matrix(0.606 -0.7955 0.7955 0.606 -537.4003 720.2979)" class="st92" width="46.27" height="1.35"/>
		</g>
		<g>
			
				<rect x="403.8" y="497.62" transform="matrix(0.4651 -0.8852 0.8852 0.4651 -236.2993 631.5421)" class="st92" width="1.35" height="27.39"/>
		</g>
		<g>
			<polygon class="st92" points="1347.79,191.43 1346.77,190.53 1374.79,158.58 1375.8,159.47 			"/>
		</g>
		<g>
			
				<rect x="808.56" y="267.55" transform="matrix(0.8953 -0.4454 0.4454 0.8953 -40.7249 389.9077)" class="st92" width="1.35" height="28.11"/>
		</g>
		<g>
			
				<rect x="599.74" y="705.65" transform="matrix(0.767 -0.6416 0.6416 0.767 -308.5767 562.8329)" class="st92" width="41.99" height="1.35"/>
		</g>
	</g>
</g>
<g>
</g>
<g>
</g>
<g>
</g>
<g>
</g>
<g>
</g>
<g>
</g>
</svg>
