<?xml version="1.0" encoding="utf-8"?>
<!-- Generator: Adobe Illustrator 19.0.0, SVG Export Plug-In . SVG Version: 6.00 Build 0)  -->
<svg version="1.1" id="Progressive" xmlns="http://www.w3.org/2000/svg" xmlns:xlink="http://www.w3.org/1999/xlink" x="0px"
	 y="0px" viewBox="-7 9 284 284" style="enable-background:new -7 9 284 284;" xml:space="preserve">
<style type="text/css">
	.st0{fill:none;stroke:#2458A6;stroke-width:12;stroke-linecap:round;stroke-linejoin:round;stroke-miterlimit:10;}
	.st1{fill:none;stroke:#2458A6;stroke-width:11;stroke-linecap:round;stroke-linejoin:round;stroke-miterlimit:10;}
	.st2{fill:none;stroke:#2458A6;stroke-width:9;stroke-linecap:round;stroke-linejoin:round;stroke-miterlimit:10;}
	.st3{fill:none;stroke:#F2644B;stroke-width:12;stroke-linecap:round;stroke-linejoin:round;stroke-miterlimit:10;}
</style>
<g>
	<path class="st0" d="M194,206.8H26.2c-2.5,0-4.5-2.1-4.5-4.5V72.4c0-2.5,2.1-4.5,4.5-4.5h190.6c2.5,0,4.5,2.1,4.5,4.5
		c0,23.6-0.1,47.3-0.1,70.9"/>
	<polygon class="st0" points="151.9,243 91.1,243 99.8,206.8 143.3,206.8 	"/>
	<line class="st0" x1="65.1" y1="243" x2="178" y2="243"/>
	<g>
		<path class="st1" d="M245.8,249.8h-44.6c-2.8,0-5-2.3-5-5v-93.4c0-2.8,2.3-5,5-5h44.6c2.8,0,5,2.3,5,5v93.4
			C250.9,247.5,248.6,249.8,245.8,249.8z"/>
		<line class="st2" x1="195.3" y1="231.5" x2="249.9" y2="231.5"/>
		<line class="st2" x1="197.1" y1="164.6" x2="251.7" y2="164.6"/>
	</g>
</g>
<polyline class="st3" points="53.4,138.5 53.4,103.9 86.1,103.9 "/>
<path class="st3" d="M59.2,109.7c12.2,11.4,24.5,22.8,36.7,34.2"/>
<polyline class="st3" points="130.9,161.6 165.5,161.7 165.6,129 "/>
<path class="st3" d="M161,155.1c-12.8-10.4-25.8-20.8-38.6-31"/>
</svg>
