<?xml version="1.0" encoding="utf-8"?>
<!-- Generator: Adobe Illustrator 19.0.0, SVG Export Plug-In . SVG Version: 6.00 Build 0)  -->
<svg version="1.1" id="Progressive" xmlns="http://www.w3.org/2000/svg" xmlns:xlink="http://www.w3.org/1999/xlink" x="0px"
	 y="0px" viewBox="-7 9 284 284" style="enable-background:new -7 9 284 284;" xml:space="preserve">
<style type="text/css">
	.st0{fill:none;stroke:#2458A6;stroke-width:12;stroke-linecap:round;stroke-linejoin:round;stroke-miterlimit:10;}
	.st1{fill:none;stroke:#FF6347;stroke-width:12;stroke-linecap:round;stroke-linejoin:round;stroke-miterlimit:10;}
	.st2{fill:none;stroke:#FF6347;stroke-width:11;stroke-linecap:round;stroke-linejoin:round;stroke-miterlimit:10;}
	.st3{fill:none;stroke:#FF6347;stroke-width:10;stroke-linecap:round;stroke-linejoin:round;stroke-miterlimit:10;}
</style>
<g id="icon">
	<g>
		<path class="st0" d="M203.1,60.8c14.5,0.1,29,0.1,43.5,0.2c1.9,0,3.3,2.1,3.3,5.1v59.6c0,21.7,0,43.5,0,65.2"/>
		<path class="st0" d="M189.8,210.9c-55.1,0-110.1,0-164.6,0c-3.1,0-5.2-2.1-5.2-5.1V66.2c0-1.5,0.5-2.6,1.6-3.6
			c1-1,2.6-1.5,3.7-1.5c12,0,23.9-0.1,35.9-0.1c0.9,0,0.3,0,8.5,0c12.9,0,51-0.1,137.9-0.1"/>
		<path class="st0" d="M188.3,210.9"/>
		<path class="st0" d="M249.9,192.5v13.9c0,3.1-1.7,5.1-4.3,5.1H217"/>
		<polygon class="st0" points="160.1,246.9 100,246.9 109.7,210.9 149.8,210.9 		"/>
		<line class="st0" x1="80" y1="246.9" x2="180.1" y2="246.9"/>
	</g>
	<rect x="47.3" y="65" class="st0" width="173.3" height="21.1"/>
	<rect x="47.3" y="108.3" class="st0" width="78.8" height="66.2"/>
	<line class="st1" x1="144.7" y1="109.3" x2="180.1" y2="109.3"/>
	<line class="st1" x1="144.7" y1="129.3" x2="168.8" y2="129.3"/>
	<g>
		<polygon class="st2" points="193.6,139.5 215.6,139.6 215.4,230.8 193.4,230.8 		"/>
		<polygon class="st3" points="204.6,116 193.6,137.5 215.6,137.5 		"/>
		<line class="st1" x1="214.2" y1="211.6" x2="194.6" y2="211.6"/>
	</g>
</g>
</svg>
